<?xml version="1.0" encoding="utf-8"?>
<!-- Generator: Adobe Illustrator 16.0.0, SVG Export Plug-In . SVG Version: 6.00 Build 0)  -->
<!DOCTYPE svg PUBLIC "-//W3C//DTD SVG 1.1//EN" "http://www.w3.org/Graphics/SVG/1.1/DTD/svg11.dtd">
<svg version="1.1" id="Layer_1" xmlns="http://www.w3.org/2000/svg" xmlns:xlink="http://www.w3.org/1999/xlink" x="0px" y="0px"
	 width="63.006px" height="29.486px" viewBox="0 0 63.006 29.486" enable-background="new 0 0 63.006 29.486" xml:space="preserve">
<g>
	<defs>
		<rect id="SVGID_1_" y="0" width="63.005" height="29.486"/>
	</defs>
	<clipPath id="SVGID_2_">
		<use xlink:href="#SVGID_1_"  overflow="visible"/>
	</clipPath>
	<path clip-path="url(#SVGID_2_)" fill="none" stroke="#F389AF" stroke-width="0.878" stroke-miterlimit="10" d="M50.28,8.454
		c0,0-3.887-3.652-5.977-5.074c-3.532-2.402-8.109-2.941-12.095-2.941c-3.984,0-6.501,1.613-7.366,2.45
		c-0.869,0.823-5.479,6.774-5.479,6.774s-14.327,2.855-15.49,3.772c-1.162,0.903-1.411,3.985-2.075,4.478
		c-0.664,0.503-1.245,1.499-1.328,2.402c-0.083,0.918-0.083,1.914,0.996,2.086c0.664,0.093,4.075,0.851,6.61,1.421
		c0.422-3.533,3.4-6.293,7.053-6.293c3.85,0,6.966,3.052,7.101,6.88l19.713-0.12c0.197-3.761,3.282-6.76,7.098-6.76
		c3.541,0,6.465,2.603,7.015,5.986c1.649-0.425,3.539-0.941,4.269-1.286c1.411-0.664,2.241-1.489,2.241-3.242v-5.391l-5.531-2.312
		L50.28,8.454z M23.964,9.357c0,0,2.968-5.007,4.213-5.164c0.343-0.056,2.508-0.943,7.759-0.268
		c6.558,0.838,9.197,5.432,9.197,5.432H23.964z"/>
	<path clip-path="url(#SVGID_2_)" fill="none" stroke="#F389AF" stroke-width="0.878" stroke-miterlimit="10" d="M15.13,20.274
		c-2.424,0-4.389,1.959-4.389,4.385c0,2.428,1.965,4.387,4.389,4.387c2.424,0,4.392-1.959,4.392-4.387
		C19.522,22.233,17.555,20.274,15.13,20.274"/>
	<path clip-path="url(#SVGID_2_)" fill="none" stroke="#F389AF" stroke-width="0.878" stroke-miterlimit="10" d="M49.041,20.273
		c-2.425,0-4.394,1.96-4.394,4.386c0,2.428,1.969,4.388,4.394,4.388c2.419,0,4.389-1.96,4.389-4.388
		C53.43,22.233,51.46,20.273,49.041,20.273"/>
</g>
</svg>
