<?xml version="1.0" encoding="utf-8"?>
<!-- Generator: Adobe Illustrator 18.1.0, SVG Export Plug-In . SVG Version: 6.00 Build 0)  -->
<svg version="1.1" id="Layer_1" xmlns="http://www.w3.org/2000/svg" xmlns:xlink="http://www.w3.org/1999/xlink" x="0px" y="0px"
	 viewBox="0 0 101.6 22.9" enable-background="new 0 0 101.6 22.9" xml:space="preserve">
<g>
	<path fill="#FFCF04" d="M2.4,1.1v7.1H0.8V1.1H2.4z"/>
	<path fill="#FFCF04" d="M5.3,1.1l3,4.8h0V1.1h1.5v7.1H8.2l-3-4.8h0v4.8H3.7V1.1H5.3z"/>
	<path fill="#FFCF04" d="M14.2,1.1c0.5,0,0.9,0.1,1.3,0.2s0.7,0.4,1,0.7c0.3,0.3,0.5,0.7,0.7,1.1c0.2,0.4,0.2,1,0.2,1.5
		c0,0.5-0.1,1-0.2,1.4c-0.1,0.4-0.3,0.8-0.6,1.1c-0.3,0.3-0.6,0.6-1,0.8c-0.4,0.2-0.9,0.3-1.4,0.3h-3.1V1.1H14.2z M14.1,6.9
		c0.2,0,0.4,0,0.7-0.1c0.2-0.1,0.4-0.2,0.6-0.4c0.2-0.2,0.3-0.4,0.4-0.7s0.2-0.6,0.2-1c0-0.4,0-0.7-0.1-1S15.6,3.2,15.5,3
		c-0.2-0.2-0.4-0.4-0.6-0.5c-0.3-0.1-0.6-0.2-1-0.2h-1.1v4.5H14.1z"/>
	<path fill="#FFCF04" d="M23.8,7.7c-0.5,0.5-1.3,0.7-2.2,0.7c-1,0-1.7-0.2-2.2-0.7s-0.8-1.2-0.8-2.2V1.1h1.6v4.4c0,0.2,0,0.4,0,0.6
		c0,0.2,0.1,0.4,0.2,0.5c0.1,0.1,0.3,0.3,0.4,0.3C21,7,21.3,7.1,21.6,7.1c0.6,0,0.9-0.1,1.2-0.4c0.2-0.2,0.3-0.6,0.3-1.2V1.1h1.6
		v4.4C24.6,6.5,24.4,7.2,23.8,7.7z"/>
	<path fill="#FFCF04" d="M27.2,6.4c0.1,0.2,0.2,0.3,0.3,0.4C27.7,7,27.8,7,28,7.1s0.4,0.1,0.6,0.1c0.1,0,0.3,0,0.5,0
		s0.3-0.1,0.5-0.1c0.1-0.1,0.3-0.2,0.3-0.3C30,6.6,30,6.4,30,6.3c0-0.2-0.1-0.3-0.2-0.5s-0.3-0.2-0.5-0.3c-0.2-0.1-0.4-0.2-0.7-0.2
		c-0.3-0.1-0.5-0.1-0.8-0.2c-0.3-0.1-0.5-0.1-0.8-0.2c-0.3-0.1-0.5-0.2-0.7-0.4c-0.2-0.2-0.4-0.3-0.5-0.6c-0.1-0.2-0.2-0.5-0.2-0.8
		c0-0.4,0.1-0.7,0.2-1c0.2-0.3,0.4-0.5,0.6-0.7c0.3-0.2,0.5-0.3,0.9-0.4c0.3-0.1,0.6-0.1,1-0.1c0.4,0,0.7,0,1.1,0.1
		c0.3,0.1,0.6,0.2,0.9,0.4s0.5,0.4,0.6,0.7c0.2,0.3,0.2,0.6,0.2,1.1h-1.5c0-0.2-0.1-0.4-0.1-0.5c-0.1-0.1-0.2-0.2-0.3-0.3
		s-0.3-0.1-0.4-0.2c-0.2,0-0.3,0-0.5,0c-0.1,0-0.3,0-0.4,0c-0.1,0-0.2,0.1-0.3,0.1c-0.1,0.1-0.2,0.2-0.3,0.2
		c-0.1,0.1-0.1,0.2-0.1,0.4c0,0.1,0,0.3,0.1,0.3c0.1,0.1,0.2,0.2,0.3,0.2c0.2,0.1,0.4,0.1,0.7,0.2C28.6,3.8,29,3.9,29.4,4
		c0.1,0,0.3,0.1,0.6,0.1c0.2,0.1,0.5,0.2,0.7,0.3s0.4,0.4,0.6,0.6c0.2,0.3,0.3,0.6,0.3,1c0,0.3-0.1,0.6-0.2,0.9
		c-0.1,0.3-0.3,0.5-0.6,0.7c-0.2,0.2-0.6,0.4-0.9,0.5c-0.4,0.1-0.8,0.2-1.3,0.2c-0.4,0-0.8,0-1.1-0.1s-0.7-0.2-1-0.5
		c-0.3-0.2-0.5-0.5-0.7-0.8c-0.2-0.3-0.2-0.7-0.2-1.1H27C27,6.1,27.1,6.3,27.2,6.4z"/>
	<path fill="#FFCF04" d="M31.9,2.4V1.1h5.9v1.3h-2.1v5.8H34V2.4H31.9z"/>
	<path fill="#FFCF04" d="M42.4,1.1c0.3,0,0.6,0.1,0.9,0.2c0.3,0.1,0.5,0.2,0.7,0.4c0.2,0.2,0.3,0.4,0.4,0.6c0.1,0.2,0.1,0.5,0.1,0.8
		c0,0.4-0.1,0.8-0.3,1.1s-0.5,0.5-0.9,0.7v0c0.2,0.1,0.4,0.1,0.5,0.2c0.1,0.1,0.2,0.2,0.3,0.4c0.1,0.1,0.1,0.3,0.2,0.5
		c0,0.2,0.1,0.4,0.1,0.5c0,0.1,0,0.2,0,0.4c0,0.2,0,0.3,0,0.5s0,0.3,0.1,0.5c0,0.1,0.1,0.3,0.2,0.4h-1.6C43.1,8,43,7.7,43,7.4
		c0-0.3-0.1-0.6-0.1-0.9c-0.1-0.4-0.2-0.6-0.3-0.8c-0.2-0.2-0.5-0.3-0.8-0.3h-1.6v2.8h-1.6V1.1H42.4z M41.9,4.3
		c0.4,0,0.6-0.1,0.8-0.2c0.2-0.2,0.3-0.4,0.3-0.8c0-0.3-0.1-0.6-0.3-0.8c-0.2-0.2-0.5-0.2-0.8-0.2h-1.7v2H41.9z"/>
	<path fill="#FFCF04" d="M44.7,1.1h1.8l1.7,2.8l1.7-2.8h1.8l-2.6,4.4v2.7h-1.6V5.4L44.7,1.1z"/>
	<path fill="#FFCF04" d="M58.4,1.1l2.7,7.1h-1.6l-0.5-1.6h-2.7l-0.6,1.6h-1.6l2.7-7.1H58.4z M58.5,5.4l-0.9-2.6h0l-0.9,2.6H58.5z"/>
	<path fill="#FFCF04" d="M62.8,8.2l-2.3-7.1h1.6l1.6,5h0l1.6-5H67l-2.4,7.1H62.8z"/>
	<path fill="#FFCF04" d="M72.9,1.1v1.3h-3.8v1.5h3.5v1.2h-3.5v1.8H73v1.3h-5.4V1.1H72.9z"/>
	<path fill="#FFCF04" d="M77.9,1.1c0.3,0,0.6,0.1,0.9,0.2c0.3,0.1,0.5,0.2,0.7,0.4c0.2,0.2,0.3,0.4,0.4,0.6C79.9,2.5,80,2.8,80,3
		c0,0.4-0.1,0.8-0.3,1.1s-0.5,0.5-0.9,0.7v0C79,4.9,79.2,5,79.3,5.1c0.1,0.1,0.2,0.2,0.3,0.4c0.1,0.1,0.1,0.3,0.2,0.5
		c0,0.2,0.1,0.4,0.1,0.5c0,0.1,0,0.2,0,0.4c0,0.2,0,0.3,0,0.5s0,0.3,0.1,0.5c0,0.1,0.1,0.3,0.2,0.4h-1.6c-0.1-0.2-0.1-0.5-0.2-0.8
		c0-0.3-0.1-0.6-0.1-0.9c-0.1-0.4-0.2-0.6-0.3-0.8c-0.2-0.2-0.5-0.3-0.8-0.3h-1.6v2.8H74V1.1H77.9z M77.3,4.3c0.4,0,0.6-0.1,0.8-0.2
		c0.2-0.2,0.3-0.4,0.3-0.8c0-0.3-0.1-0.6-0.3-0.8c-0.2-0.2-0.5-0.2-0.8-0.2h-1.7v2H77.3z"/>
	<path fill="#FFCF04" d="M84.8,1.1l2.7,7.1h-1.6l-0.5-1.6h-2.7l-0.6,1.6h-1.6l2.7-7.1H84.8z M84.9,5.4L84,2.8h0l-0.9,2.6H84.9z"/>
	<path fill="#FFCF04" d="M92.3,8.2c-0.3,0.1-0.7,0.2-1,0.2c-0.5,0-1-0.1-1.5-0.3S89,7.6,88.7,7.3C88.4,7,88.2,6.6,88,6.1
		s-0.2-0.9-0.2-1.5c0-0.5,0.1-1,0.2-1.5c0.2-0.5,0.4-0.9,0.7-1.2c0.3-0.3,0.7-0.6,1.1-0.8s0.9-0.3,1.5-0.3c0.4,0,0.7,0.1,1.1,0.2
		c0.3,0.1,0.7,0.3,0.9,0.5C93.6,1.8,93.8,2,94,2.3c0.2,0.3,0.3,0.7,0.3,1.1h-1.5c-0.1-0.4-0.3-0.7-0.5-0.9c-0.3-0.2-0.6-0.3-1-0.3
		c-0.4,0-0.7,0.1-0.9,0.2C90.2,2.6,90,2.7,89.8,3c-0.2,0.2-0.3,0.5-0.3,0.8c-0.1,0.3-0.1,0.6-0.1,0.9c0,0.3,0,0.6,0.1,0.9
		c0.1,0.3,0.2,0.5,0.3,0.8c0.2,0.2,0.4,0.4,0.6,0.5C90.7,7,91,7.1,91.3,7.1c0.5,0,0.9-0.1,1.2-0.4S93,6,93,5.5h-1.6V4.3h3v3.9h-1
		l-0.2-0.8C93,7.8,92.7,8,92.3,8.2z"/>
	<path fill="#FFCF04" d="M101,1.1v1.3h-3.8v1.5h3.5v1.2h-3.5v1.8h3.9v1.3h-5.4V1.1H101z"/>
</g>
<polygon fill="#FFCF04" points="56.4,15.6 51,22.3 45.7,15.6 "/>
</svg>
