<?xml version="1.0" encoding="utf-8"?>
<!-- Generator: Adobe Illustrator 16.0.0, SVG Export Plug-In . SVG Version: 6.00 Build 0)  -->
<!DOCTYPE svg PUBLIC "-//W3C//DTD SVG 1.1//EN" "http://www.w3.org/Graphics/SVG/1.1/DTD/svg11.dtd">
<svg version="1.1" id="Layer_1" xmlns="http://www.w3.org/2000/svg" xmlns:xlink="http://www.w3.org/1999/xlink" x="0px" y="0px"
	 width="32.671px" height="31.351px" viewBox="0 0 32.671 31.351" enable-background="new 0 0 32.671 31.351" xml:space="preserve">
<g>
	<defs>
		<rect id="SVGID_1_" width="32.671" height="31.351"/>
	</defs>
	<clipPath id="SVGID_2_">
		<use xlink:href="#SVGID_1_"  overflow="visible"/>
	</clipPath>
	<path clip-path="url(#SVGID_2_)" fill="none" stroke="#AF6EE8" stroke-miterlimit="10" d="M16.367,14.475
		c-2.155,0-3.89,1.742-3.89,3.89c0,2.142,1.735,3.886,3.89,3.886c2.138,0,3.884-1.744,3.884-3.886
		C20.251,16.217,18.505,14.475,16.367,14.475"/>
	<path clip-path="url(#SVGID_2_)" fill="none" stroke="#AF6EE8" stroke-miterlimit="10" d="M7.224,30.942
		C3.011,27.975,0.5,23.136,0.5,18.008c0-8.733,7.1-15.837,15.834-15.837c8.73,0,15.837,7.104,15.837,15.837
		c0,5.083-2.478,9.889-6.632,12.867"/>
	<path clip-path="url(#SVGID_2_)" fill="none" stroke="#AF6EE8" stroke-miterlimit="10" d="M9.092,27.618
		c-2.921-2.272-4.594-5.68-4.594-9.351c0-6.529,5.307-11.84,11.836-11.84c6.532,0,11.838,5.311,11.838,11.84
		c0,3.628-1.64,7.016-4.502,9.28"/>
	<path clip-path="url(#SVGID_2_)" fill="none" stroke="#AF6EE8" stroke-miterlimit="10" d="M11.088,24.165
		c-1.601-1.484-2.481-3.494-2.481-5.659c0-4.26,3.467-7.726,7.726-7.726c4.261,0,7.73,3.466,7.73,7.726
		c0,2.126-0.855,4.11-2.4,5.589"/>
</g>
</svg>
