<?xml version="1.0" encoding="utf-8"?>
<!-- Generator: Adobe Illustrator 16.0.0, SVG Export Plug-In . SVG Version: 6.00 Build 0)  -->
<!DOCTYPE svg PUBLIC "-//W3C//DTD SVG 1.1//EN" "http://www.w3.org/Graphics/SVG/1.1/DTD/svg11.dtd">
<svg version="1.1" id="Layer_1" xmlns="http://www.w3.org/2000/svg" xmlns:xlink="http://www.w3.org/1999/xlink" x="0px" y="0px"
	 width="43px" height="35.623px" viewBox="0 0 43 35.623" enable-background="new 0 0 43 35.623" xml:space="preserve">
<g>
	<defs>
		<rect id="SVGID_1_" width="43" height="35.623"/>
	</defs>
	<clipPath id="SVGID_2_">
		<use xlink:href="#SVGID_1_"  overflow="visible"/>
	</clipPath>
	<path clip-path="url(#SVGID_2_)" fill="none" stroke="#FFD74F" stroke-miterlimit="10" d="M23.668,28.143h-4.339v-2.17
		c0-1.203,0.97-2.175,2.169-2.175c1.196,0,2.17,0.972,2.17,2.175V28.143"/>
	<path clip-path="url(#SVGID_2_)" fill="none" stroke="#FFD74F" stroke-miterlimit="10" d="M34.659,35.123H8.341L7.61,34.484
		c-0.662-0.592-1.289-1.22-1.865-1.864C2.562,29.006,0.5,23.195,0.5,17.809c0-5.376,2.062-11.187,5.245-14.801
		c0.587-0.661,1.214-1.289,1.869-1.869L8.341,0.5h26.314l0.731,0.639c0.637,0.564,1.271,1.192,1.868,1.864
		c3.19,3.619,5.245,9.43,5.245,14.806c0,5.381-2.062,11.197-5.245,14.811c-0.579,0.656-1.21,1.284-1.868,1.864L34.659,35.123"/>
	<path clip-path="url(#SVGID_2_)" fill="none" stroke="#FFD74F" stroke-miterlimit="10" d="M16.228,21.47h-2.764
		c-0.376,0-0.687-0.312-0.687-0.693v-9.656c0-0.376,0.311-0.687,0.687-0.687h2.764c0.372,0,0.687,0.311,0.687,0.687v2.761v6.895
		C16.915,21.158,16.6,21.47,16.228,21.47"/>
	<path clip-path="url(#SVGID_2_)" fill="none" stroke="#FFD74F" stroke-miterlimit="10" d="M29.144,21.47H26.38
		c-0.377,0-0.688-0.312-0.688-0.693v-9.656c0-0.376,0.311-0.687,0.688-0.687h2.764c0.372,0,0.687,0.311,0.687,0.687v2.761v6.895
		C29.83,21.158,29.516,21.47,29.144,21.47"/>
</g>
</svg>
