<?xml version="1.0" encoding="utf-8"?>
<!-- Generator: Adobe Illustrator 16.0.0, SVG Export Plug-In . SVG Version: 6.00 Build 0)  -->
<!DOCTYPE svg PUBLIC "-//W3C//DTD SVG 1.1//EN" "http://www.w3.org/Graphics/SVG/1.1/DTD/svg11.dtd">
<svg version="1.1" id="Layer_1" xmlns="http://www.w3.org/2000/svg" xmlns:xlink="http://www.w3.org/1999/xlink" x="0px" y="0px"
	 width="35.835px" height="38.835px" viewBox="0 0 35.835 38.835" enable-background="new 0 0 35.835 38.835" xml:space="preserve">
<g>
	<defs>
		<rect id="SVGID_1_" y="0" width="35.835" height="38.835"/>
	</defs>
	<clipPath id="SVGID_2_">
		<use xlink:href="#SVGID_1_"  overflow="visible"/>
	</clipPath>
	<path clip-path="url(#SVGID_2_)" fill="none" stroke="#00A68B" stroke-miterlimit="10" d="M6.011,12.9l4.738,2.707l5.586-9.398
		c-0.482-0.188-0.897-0.498-1.221-0.89l-8.919,4.976c0.141,0.347,0.222,0.725,0.222,1.123C6.417,11.96,6.262,12.461,6.011,12.9z"/>
	<path clip-path="url(#SVGID_2_)" fill="none" stroke="#00A68B" stroke-miterlimit="10" d="M18.688,6.127l6.023,9.342l4.271-2.312
		c-0.353-0.491-0.563-1.089-0.563-1.739c0-0.545,0.156-1.05,0.411-1.491l-8.863-4.944C19.66,5.48,19.218,5.877,18.688,6.127z"/>
	<path clip-path="url(#SVGID_2_)" fill="none" stroke="#00A68B" stroke-miterlimit="10" d="M30.277,14.19l-3.096,5.109l3.613,5.601
		c0.314-0.202,0.666-0.35,1.046-0.424V14.375c-0.139,0.02-0.277,0.042-0.423,0.042C31.013,14.417,30.629,14.335,30.277,14.19z"/>
	<path clip-path="url(#SVGID_2_)" fill="none" stroke="#00A68B" stroke-miterlimit="10" d="M15.912,32.837l-5.483-9.399l-4.4,2.531
		c0.24,0.431,0.388,0.92,0.388,1.448c0,0.398-0.081,0.776-0.222,1.123l8.919,4.977C15.339,33.245,15.606,33.016,15.912,32.837z"/>
	<path clip-path="url(#SVGID_2_)" fill="none" stroke="#00A68B" stroke-miterlimit="10" d="M8.282,19.757l-3.359-5.758
		c-0.327,0.191-0.691,0.32-1.082,0.376v10.086c0.492,0.069,0.944,0.253,1.329,0.53L8.282,19.757z"/>
	<path clip-path="url(#SVGID_2_)" fill="none" stroke="#00A68B" stroke-miterlimit="10" d="M29.782,26.012l-5.039-2.688
		l-5.776,9.535c0.408,0.248,0.75,0.586,1,0.992l9.65-5.384c-0.124-0.328-0.199-0.679-0.199-1.05
		C29.418,26.908,29.558,26.433,29.782,26.012z"/>
	<path clip-path="url(#SVGID_2_)" fill="none" stroke="#00A68B" stroke-width="0.835" stroke-miterlimit="10" d="M17.418,16.418
		c1.139,0,2.118,0.643,2.626,1.578l4.668-2.527l-6.025-9.342c-0.386,0.182-0.812,0.291-1.269,0.291
		c-0.383,0-0.746-0.079-1.082-0.209l-5.587,9.398l4.075,2.329C15.341,17.033,16.303,16.418,17.418,16.418z"/>
	<path clip-path="url(#SVGID_2_)" fill="none" stroke="#00A68B" stroke-width="0.835" stroke-miterlimit="10" d="M30.795,24.901
		l-3.613-5.602l-2.438,4.026l5.039,2.688C30.023,25.562,30.367,25.176,30.795,24.901z"/>
	<path clip-path="url(#SVGID_2_)" fill="none" stroke="#00A68B" stroke-width="0.835" stroke-miterlimit="10" d="M5.17,24.993
		c0.355,0.257,0.645,0.592,0.859,0.977l4.4-2.531l-2.147-3.681L5.17,24.993z"/>
	<path clip-path="url(#SVGID_2_)" fill="none" stroke="#00A68B" stroke-miterlimit="10" d="M17.418,22.417
		c-1.112,0-2.071-0.611-2.589-1.51l-4.399,2.53l5.483,9.398c0.444-0.26,0.953-0.419,1.505-0.419c0.568,0,1.096,0.167,1.549,0.443
		l5.777-9.536l-4.691-2.501C19.548,21.768,18.563,22.417,17.418,22.417z"/>
	<path clip-path="url(#SVGID_2_)" fill="none" stroke="#00A68B" stroke-miterlimit="10" d="M6.011,12.9
		c-0.261,0.456-0.635,0.834-1.088,1.099l3.359,5.758l2.467-4.15L6.011,12.9z"/>
	<path clip-path="url(#SVGID_2_)" fill="none" stroke="#00A68B" stroke-miterlimit="10" d="M30.277,14.19
		c-0.525-0.216-0.971-0.578-1.296-1.034l-4.27,2.312l2.47,3.831L30.277,14.19z"/>
	<path clip-path="url(#SVGID_2_)" fill="none" stroke="#00A68B" stroke-width="0.835" stroke-miterlimit="10" d="M14.417,19.418
		c0-0.542,0.155-1.043,0.406-1.482l-4.075-2.329l-2.467,4.15l2.148,3.681l4.399-2.53C14.574,20.467,14.417,19.962,14.417,19.418z"/>
	<path clip-path="url(#SVGID_2_)" fill="none" stroke="#00A68B" stroke-width="0.835" stroke-miterlimit="10" d="M24.712,15.468
		l-4.668,2.527c0.23,0.425,0.374,0.905,0.374,1.422c0,0.511-0.14,0.985-0.365,1.406l4.69,2.501l2.438-4.025L24.712,15.468z"/>
	
		<circle clip-path="url(#SVGID_2_)" fill="none" stroke="#00A68B" stroke-width="0.835" stroke-miterlimit="10" cx="17.418" cy="3.418" r="3"/>
	
		<circle clip-path="url(#SVGID_2_)" fill="none" stroke="#00A68B" stroke-width="0.835" stroke-miterlimit="10" cx="17.418" cy="19.418" r="3"/>
	
		<circle clip-path="url(#SVGID_2_)" fill="none" stroke="#00A68B" stroke-width="0.835" stroke-miterlimit="10" cx="31.418" cy="11.418" r="3"/>
	
		<circle clip-path="url(#SVGID_2_)" fill="none" stroke="#00A68B" stroke-width="0.835" stroke-miterlimit="10" cx="32.418" cy="27.417" r="3"/>
	
		<circle clip-path="url(#SVGID_2_)" fill="none" stroke="#00A68B" stroke-width="0.835" stroke-miterlimit="10" cx="3.417" cy="11.418" r="3"/>
	
		<circle clip-path="url(#SVGID_2_)" fill="none" stroke="#00A68B" stroke-width="0.835" stroke-miterlimit="10" cx="3.417" cy="27.417" r="3"/>
	
		<circle clip-path="url(#SVGID_2_)" fill="none" stroke="#00A68B" stroke-width="0.835" stroke-miterlimit="10" cx="17.418" cy="35.417" r="3"/>
</g>
</svg>
