<?xml version="1.0" encoding="utf-8"?>
<!-- Generator: Adobe Illustrator 16.0.0, SVG Export Plug-In . SVG Version: 6.00 Build 0)  -->
<!DOCTYPE svg PUBLIC "-//W3C//DTD SVG 1.1//EN" "http://www.w3.org/Graphics/SVG/1.1/DTD/svg11.dtd">
<svg version="1.1" id="Layer_1" xmlns="http://www.w3.org/2000/svg" xmlns:xlink="http://www.w3.org/1999/xlink" x="0px" y="0px"
	 width="33.038px" height="35.747px" viewBox="0 0 33.038 35.747" enable-background="new 0 0 33.038 35.747" xml:space="preserve">
<g>
	<defs>
		<rect id="SVGID_1_" y="0" width="33.038" height="35.747"/>
	</defs>
	<clipPath id="SVGID_2_">
		<use xlink:href="#SVGID_1_"  overflow="visible"/>
	</clipPath>
	<path clip-path="url(#SVGID_2_)" fill="none" stroke="#00A6A0" stroke-miterlimit="10" d="M16.519,35.382
		c2.193-2.063,9.527-3.135,13.024-6.971c1.974-2.157,2.995-4.916,2.995-7.974c0-5.5-5.96-9.684-0.759-15.829l-2.936-2.386
		c-1.072,1.115-2.577,1.818-4.244,1.818c-2.418,0-5.681-1.459-6.586-3.542h-2.984c-0.909,2.083-4.174,3.542-6.591,3.542
		c-1.669,0-3.173-0.703-4.243-1.818L1.259,4.609C6.458,10.754,0.5,14.938,0.5,20.438c0,3.058,1.023,5.816,2.993,7.974
		C6.99,32.248,14.327,33.319,16.519,35.382"/>
</g>
</svg>
