<?xml version="1.0" encoding="utf-8"?>
<!-- Generator: Adobe Illustrator 16.0.0, SVG Export Plug-In . SVG Version: 6.00 Build 0)  -->
<!DOCTYPE svg PUBLIC "-//W3C//DTD SVG 1.1//EN" "http://www.w3.org/Graphics/SVG/1.1/DTD/svg11.dtd">
<svg version="1.1" id="Layer_1" xmlns="http://www.w3.org/2000/svg" xmlns:xlink="http://www.w3.org/1999/xlink" x="0px" y="0px"
	 width="33.745px" height="51.727px" viewBox="0 0 33.745 51.727" enable-background="new 0 0 33.745 51.727" xml:space="preserve">
<g>
	<defs>
		<rect id="SVGID_1_" y="0" width="33.745" height="51.727"/>
	</defs>
	<clipPath id="SVGID_2_">
		<use xlink:href="#SVGID_1_"  overflow="visible"/>
	</clipPath>
	<path clip-path="url(#SVGID_2_)" fill="none" stroke="#00B2EF" stroke-miterlimit="10" d="M33.245,14.886
		c0,7.945-6.44,14.386-14.386,14.386c-7.946,0-14.387-6.441-14.387-14.386C4.472,6.94,10.913,0.5,18.859,0.5
		C26.805,0.5,33.245,6.94,33.245,14.886z M28.059,14.886c0,7.945-4.119,14.386-9.199,14.386c-5.081,0-9.199-6.441-9.199-14.386
		C9.66,6.94,13.778,0.5,18.859,0.5C23.939,0.5,28.059,6.94,28.059,14.886z M22.658,14.886c0,7.945-1.701,14.386-3.799,14.386
		c-2.1,0-3.8-6.441-3.8-14.386c0-7.946,1.701-14.387,3.8-14.387C20.957,0.5,22.658,6.94,22.658,14.886z M5.22,14.542h28"/>
	<path clip-path="url(#SVGID_2_)" fill="none" stroke="#00B2EF" stroke-miterlimit="10" d="M9.487,35.107
		c-3.681,0-6.927,1.844-8.878,4.655c1.951,2.812,5.197,4.655,8.878,4.655s6.928-1.844,8.878-4.655
		C16.415,36.951,13.168,35.107,9.487,35.107z"/>
	
		<line clip-path="url(#SVGID_2_)" fill="none" stroke="#00B2EF" stroke-miterlimit="10" x1="18.859" y1="51.727" x2="18.859" y2="29.272"/>
</g>
</svg>
