<?xml version="1.0" encoding="utf-8"?>
<!-- Generator: Adobe Illustrator 16.0.0, SVG Export Plug-In . SVG Version: 6.00 Build 0)  -->
<!DOCTYPE svg PUBLIC "-//W3C//DTD SVG 1.1//EN" "http://www.w3.org/Graphics/SVG/1.1/DTD/svg11.dtd">
<svg version="1.1" id="Layer_1" xmlns="http://www.w3.org/2000/svg" xmlns:xlink="http://www.w3.org/1999/xlink" x="0px" y="0px"
	 width="35.978px" height="42.15px" viewBox="0 0 35.978 42.15" enable-background="new 0 0 35.978 42.15" xml:space="preserve">
<g>
	<defs>
		<rect id="SVGID_1_" y="0" width="35.977" height="42.15"/>
	</defs>
	<clipPath id="SVGID_2_">
		<use xlink:href="#SVGID_1_"  overflow="visible"/>
	</clipPath>
	<path clip-path="url(#SVGID_2_)" fill="none" stroke="#FFD74F" stroke-miterlimit="10" d="M23.021,30.023L13.04,18.028
		c-1.356-1.624-3.343-2.555-5.457-2.555c-1.65,0-3.26,0.586-4.534,1.643c-3.004,2.501-3.413,6.981-0.909,9.989l9.978,11.989
		c1.353,1.625,3.34,2.556,5.456,2.556c1.654,0,3.261-0.581,4.534-1.64C25.112,37.507,25.521,33.029,23.021,30.023"/>
	
		<line clip-path="url(#SVGID_2_)" fill="none" stroke="#FFD74F" stroke-miterlimit="10" x1="6.205" y1="32.901" x2="17.55" y2="23.447"/>
	<path clip-path="url(#SVGID_2_)" fill="none" stroke="#FFD74F" stroke-miterlimit="10" d="M20.268,0.986
		c1.746-1.001,3.97-0.406,4.971,1.337c1.006,1.741,0.406,3.966-1.333,4.969l-8.022,4.626c-1.74,1.004-3.971,0.407-4.969-1.334
		c-1.007-1.74-0.409-3.967,1.331-4.97L20.268,0.986"/>
	
		<line clip-path="url(#SVGID_2_)" fill="none" stroke="#FFD74F" stroke-miterlimit="10" x1="23.389" y1="13.857" x2="33.994" y2="23.946"/>
	<circle clip-path="url(#SVGID_2_)" fill="none" stroke="#FFD74F" stroke-miterlimit="10" cx="28.466" cy="18.688" r="7.012"/>
</g>
</svg>
