<?xml version="1.0" encoding="utf-8"?>
<!-- Generator: Adobe Illustrator 16.2.1, SVG Export Plug-In . SVG Version: 6.00 Build 0)  -->
<!DOCTYPE svg PUBLIC "-//W3C//DTD SVG 1.1//EN" "http://www.w3.org/Graphics/SVG/1.1/DTD/svg11.dtd">
<svg version="1.1" id="Layer_1" xmlns="http://www.w3.org/2000/svg" xmlns:xlink="http://www.w3.org/1999/xlink" x="0px" y="0px"
	 width="40.679px" height="26.703px" viewBox="-0.339 6.648 40.679 26.703" enable-background="new -0.339 6.648 40.679 26.703"
	 xml:space="preserve">
<g id="device_and_header">
</g>
<g id="content">
	<g>
		<path fill="#FFFFFF" stroke="#00B2EF" stroke-miterlimit="10" d="M39.84,26.972c0-10.956-8.868-19.823-19.824-19.823
			c-10.988,0-19.855,8.868-19.855,19.823c0,2.057,0.321,4.017,0.899,5.88h37.912C39.518,30.988,39.84,29.028,39.84,26.972z"/>
	</g>
	<path fill="#FFFFFF" stroke="#00B2EF" stroke-miterlimit="10" d="M21.365,28.225c-0.932,0.836-2.409,0.771-3.245-0.192
		c-0.835-0.932-0.771-2.409,0.193-3.245l10.024-7.101c0.32-0.289,0.771-0.257,1.06,0.064s0.257,0.771-0.063,1.06L21.365,28.225z"/>
	<circle fill="#FFFFFF" stroke="#00B2EF" stroke-miterlimit="10" cx="19.984" cy="10.072" r="1.06"/>
	<circle fill="#00B2EF" stroke="#00B2EF" stroke-miterlimit="10" cx="31.743" cy="15.47" r="1.06"/>
	<circle fill="#FFFFFF" stroke="#00B2EF" stroke-miterlimit="10" cx="36.498" cy="26.908" r="1.06"/>
	<circle fill="#FFFFFF" stroke="#00B2EF" stroke-miterlimit="10" cx="3.181" cy="26.908" r="1.06"/>
	<circle fill="#FFFFFF" stroke="#00B2EF" stroke-miterlimit="10" cx="7.936" cy="15.47" r="1.06"/>
</g>
<g id="Progress_bar">
</g>
</svg>
