<?xml version="1.0" encoding="utf-8"?>
<!-- Generator: Adobe Illustrator 16.2.1, SVG Export Plug-In . SVG Version: 6.00 Build 0)  -->
<!DOCTYPE svg PUBLIC "-//W3C//DTD SVG 1.1//EN" "http://www.w3.org/Graphics/SVG/1.1/DTD/svg11.dtd">
<svg version="1.1" id="Layer_1" xmlns="http://www.w3.org/2000/svg" xmlns:xlink="http://www.w3.org/1999/xlink" x="0px" y="0px"
	 width="128px" height="114.203px" viewBox="0 0 128 114.203" enable-background="new 0 0 128 114.203" xml:space="preserve">
<polyline fill="none" stroke="#00639C" stroke-miterlimit="10" points="36.279,15.376 36.279,8.099 31.596,8.099 31.596,10.688 
	22.703,1.794 3.409,21.088 6.627,21.088 6.627,36.5 38.779,36.5 38.779,21.088 41.99,21.088 36.279,15.376 "/>
<g>
	<defs>
		<rect id="SVGID_1_" width="128" height="114.203"/>
	</defs>
	<clipPath id="SVGID_2_">
		<use xlink:href="#SVGID_1_"  overflow="visible"/>
	</clipPath>
	
		<line clip-path="url(#SVGID_2_)" fill="none" stroke="#00639C" stroke-width="1.115" stroke-miterlimit="10" x1="87.447" y1="15.486" x2="126" y2="15.486"/>
	
		<line clip-path="url(#SVGID_2_)" fill="none" stroke="#00639C" stroke-width="1.115" stroke-miterlimit="10" x1="87.447" y1="21.417" x2="126" y2="21.417"/>
	
		<line clip-path="url(#SVGID_2_)" fill="none" stroke="#00639C" stroke-width="1.115" stroke-miterlimit="10" x1="87.447" y1="27.348" x2="126" y2="27.348"/>
</g>
<line fill="none" stroke="#00639C" stroke-width="1.115" stroke-miterlimit="10" x1="112.655" y1="2.141" x2="112.655" y2="40.693"/>
<line fill="none" stroke="#00639C" stroke-width="1.115" stroke-miterlimit="10" x1="106.724" y1="2.141" x2="106.724" y2="40.693"/>
<line fill="none" stroke="#00639C" stroke-width="1.115" stroke-miterlimit="10" x1="100.792" y1="2.141" x2="100.792" y2="40.693"/>
<rect x="95.045" y="9.403" fill="#FFFFFF" width="22.696" height="22.698"/>
<rect x="95.045" y="9.403" fill="none" stroke="#00639C" stroke-width="1.115" stroke-miterlimit="10" width="22.696" height="22.698"/>
<g>
	<defs>
		<rect id="SVGID_3_" width="128" height="114.203"/>
	</defs>
	<clipPath id="SVGID_4_">
		<use xlink:href="#SVGID_3_"  overflow="visible"/>
	</clipPath>
	
		<circle clip-path="url(#SVGID_4_)" fill="none" stroke="#00639C" stroke-width="1.115" stroke-miterlimit="10" cx="106.392" cy="20.752" r="3.956"/>
	
		<line clip-path="url(#SVGID_4_)" fill="none" stroke="#00639C" stroke-width="1.115" stroke-miterlimit="10" x1="13.917" y1="20.21" x2="33.233" y2="20.21"/>
	
		<line clip-path="url(#SVGID_4_)" fill="none" stroke="#00639C" stroke-width="1.115" stroke-miterlimit="10" x1="13.917" y1="26.154" x2="33.233" y2="26.154"/>
	
		<line clip-path="url(#SVGID_4_)" fill="none" stroke="#00639C" stroke-width="1.115" stroke-miterlimit="10" x1="26.547" y1="13.524" x2="26.547" y2="32.84"/>
	
		<line clip-path="url(#SVGID_4_)" fill="none" stroke="#00639C" stroke-width="1.115" stroke-miterlimit="10" x1="20.604" y1="13.524" x2="20.604" y2="32.84"/>
	<rect x="17.724" y="17.163" clip-path="url(#SVGID_4_)" fill="#FFFFFF" width="11.371" height="11.372"/>
	
		<rect x="17.724" y="17.163" clip-path="url(#SVGID_4_)" fill="none" stroke="#00639C" stroke-width="1.115" stroke-miterlimit="10" width="11.371" height="11.372"/>
	
		<circle clip-path="url(#SVGID_4_)" fill="none" stroke="#00639C" stroke-width="1.115" stroke-miterlimit="10" cx="23.41" cy="22.849" r="1.981"/>
	<path clip-path="url(#SVGID_4_)" fill="none" stroke="#00639C" stroke-miterlimit="10" d="M17.116,96.682
		c-1.869-2.434-2.648-3.128-4.571-3.128h-1.318c-2.256,0-4.088,1.831-4.088,4.092v13.017h8.306v-8.963h0.606l4.016,4.545
		l3.244-2.394L17.116,96.682"/>
	<path clip-path="url(#SVGID_4_)" fill="none" stroke="#00639C" stroke-miterlimit="10" d="M12.385,91.855
		c2.26,0,4.091-1.835,4.091-4.091c0-2.262-1.831-4.093-4.091-4.093c-2.258,0-4.088,1.831-4.088,4.093
		C8.296,90.021,10.126,91.855,12.385,91.855"/>
	<path clip-path="url(#SVGID_4_)" fill="none" stroke="#00639C" stroke-miterlimit="10" d="M35.585,93.554h-1.317
		c-1.923,0-2.703,0.694-4.569,3.128l-6.229,7.103l3.316,2.375l3.976-4.459h0.609v8.962h8.305V97.645
		C39.676,95.385,37.842,93.554,35.585,93.554"/>
	<path clip-path="url(#SVGID_4_)" fill="none" stroke="#00639C" stroke-miterlimit="10" d="M34.428,91.855
		c2.257,0,4.091-1.835,4.091-4.091c0-2.262-1.834-4.093-4.091-4.093c-2.26,0-4.091,1.831-4.091,4.093
		C30.337,90.021,32.168,91.855,34.428,91.855"/>
	<path clip-path="url(#SVGID_4_)" fill="none" stroke="#00639C" stroke-miterlimit="10" d="M20.067,106.243
		c0,0,2.744,4.374,6.719-0.085"/>
	
		<circle clip-path="url(#SVGID_4_)" fill="none" stroke="#00B2EF" stroke-width="0.9" stroke-miterlimit="10" cx="106.724" cy="96.8" r="16.953"/>
	<path clip-path="url(#SVGID_4_)" fill="none" stroke="#00B2EF" stroke-width="0.9" stroke-miterlimit="10" d="M106.423,79.896
		c0,0-9.155,4.832-9.155,16.616c0,12.6,9.155,17.24,9.155,17.24"/>
	<path clip-path="url(#SVGID_4_)" fill="none" stroke="#00B2EF" stroke-width="0.9" stroke-miterlimit="10" d="M106.724,79.847
		c0,0,9.193,5.224,9.193,16.666c0,12.375-9.494,17.24-9.494,17.24"/>
	<line clip-path="url(#SVGID_4_)" fill="none" stroke="#00B2EF" stroke-miterlimit="10" x1="106.5" y1="80" x2="106.5" y2="114"/>
	
		<line clip-path="url(#SVGID_4_)" fill="none" stroke="#00B2EF" stroke-width="0.9" stroke-miterlimit="10" x1="89.629" y1="96.8" x2="123.677" y2="96.8"/>
	
		<line clip-path="url(#SVGID_4_)" fill="none" stroke="#00B2EF" stroke-width="0.9" stroke-miterlimit="10" x1="91.56" y1="89.391" x2="121.888" y2="89.391"/>
	
		<line clip-path="url(#SVGID_4_)" fill="none" stroke="#00B2EF" stroke-width="0.9" stroke-miterlimit="10" x1="91.56" y1="104.896" x2="121.888" y2="104.896"/>
	<line clip-path="url(#SVGID_4_)" fill="none" stroke="#E5E5E5" stroke-miterlimit="10" x1="64.5" y1="0" x2="64.5" y2="114"/>
	<line clip-path="url(#SVGID_4_)" fill="none" stroke="#E5E5E5" stroke-miterlimit="10" x1="0" y1="57.5" x2="128" y2="57.5"/>
</g>
</svg>
