<?xml version="1.0" encoding="utf-8"?>
<!-- Generator: Adobe Illustrator 16.2.1, SVG Export Plug-In . SVG Version: 6.00 Build 0)  -->
<!DOCTYPE svg PUBLIC "-//W3C//DTD SVG 1.1//EN" "http://www.w3.org/Graphics/SVG/1.1/DTD/svg11.dtd">
<svg version="1.1" id="Layer_1" xmlns="http://www.w3.org/2000/svg" xmlns:xlink="http://www.w3.org/1999/xlink" x="0px" y="0px"
	 width="40.578px" height="33.816px" viewBox="-0.265 3.092 40.578 33.816" enable-background="new -0.265 3.092 40.578 33.816"
	 xml:space="preserve">
<g id="device_and_header">
</g>
<g id="content">
	<g>
		<g>
			<path fill="none" stroke="#00B2EF" stroke-miterlimit="10" d="M12.348,19.413c-2.254-2.958-3.24-3.803-5.54-3.803H5.211
				c-2.723,0-4.977,2.207-4.977,4.977v15.821h10.094V25.517h0.751l4.883,5.493l3.944-2.911L12.348,19.413"/>
			<path fill="none" stroke="#00B2EF" stroke-miterlimit="10" d="M6.62,13.544c2.723,0,4.977-2.207,4.977-4.977
				c0-2.723-2.207-4.976-4.977-4.976S1.643,5.798,1.643,8.568C1.643,11.291,3.85,13.544,6.62,13.544"/>
			<path fill="none" stroke="#00B2EF" stroke-miterlimit="10" d="M34.789,15.61h-1.597c-2.347,0-3.286,0.845-5.54,3.803
				l-7.559,8.639l4.037,2.864l4.836-5.399h0.752v10.892h10.094V20.587C39.766,17.817,37.559,15.61,34.789,15.61"/>
			<path fill="none" stroke="#00B2EF" stroke-miterlimit="10" d="M33.381,13.544c2.723,0,4.977-2.207,4.977-4.977
				c0-2.723-2.207-4.976-4.977-4.976c-2.724,0-4.977,2.207-4.977,4.976C28.404,11.291,30.657,13.544,33.381,13.544"/>
		</g>
		<path fill="none" stroke="#00B2EF" stroke-miterlimit="10" d="M15.962,31.01c0,0,3.333,5.305,8.168-0.094"/>
	</g>
</g>
<g id="Progress_bar">
</g>
</svg>
