<?xml version="1.0" encoding="utf-8"?>
<!-- Generator: Adobe Illustrator 16.2.1, SVG Export Plug-In . SVG Version: 6.00 Build 0)  -->
<!DOCTYPE svg PUBLIC "-//W3C//DTD SVG 1.1//EN" "http://www.w3.org/Graphics/SVG/1.1/DTD/svg11.dtd">
<svg version="1.1" id="Layer_1" xmlns="http://www.w3.org/2000/svg" xmlns:xlink="http://www.w3.org/1999/xlink" x="0px" y="0px"
	 width="25.297px" height="40.664px" viewBox="7.352 -0.332 25.297 40.664" enable-background="new 7.352 -0.332 25.297 40.664"
	 xml:space="preserve">
<g id="device_and_header">
</g>
<g id="content">
	<g>
		<rect x="7.852" y="0.168" fill="#FFFFFF" stroke="#00B2EF" stroke-miterlimit="10" width="24.297" height="39.664"/>
		<line fill="none" stroke="#00B2EF" stroke-miterlimit="10" x1="8.054" y1="7.144" x2="31.98" y2="7.144"/>
		<line fill="none" stroke="#00B2EF" stroke-miterlimit="10" x1="17.489" y1="4.448" x2="22.545" y2="4.448"/>
		<path fill="#FFFFFF" stroke="#00B2EF" stroke-miterlimit="10" d="M23.354,33.26c0,1.854-1.518,3.371-3.37,3.371
			c-1.854,0-3.37-1.518-3.37-3.371"/>
		<line fill="none" stroke="#00B2EF" stroke-miterlimit="10" x1="8.054" y1="33.429" x2="31.98" y2="33.429"/>
	</g>
	<polyline fill="#FFFFFF" stroke="#00B2EF" stroke-miterlimit="10" points="11.154,12.637 12.805,14.288 16.276,10.817 	"/>
	<line fill="none" stroke="#00B2EF" stroke-miterlimit="10" x1="17.489" y1="12.873" x2="28.947" y2="12.873"/>
	<polyline fill="#FFFFFF" stroke="#00B2EF" stroke-miterlimit="10" points="11.154,18.231 12.805,19.882 16.276,16.411 	"/>
	<line fill="none" stroke="#00B2EF" stroke-miterlimit="10" x1="17.489" y1="18.602" x2="28.947" y2="18.602"/>
	<polyline fill="#FFFFFF" stroke="#00B2EF" stroke-miterlimit="10" points="11.154,24.297 12.805,25.947 16.276,22.477 	"/>
	<line fill="none" stroke="#00B2EF" stroke-miterlimit="10" x1="17.489" y1="24.667" x2="28.947" y2="24.667"/>
</g>
<g id="Progress_bar">
</g>
</svg>
