<?xml version="1.0" encoding="utf-8"?>
<!-- Generator: Adobe Illustrator 16.0.0, SVG Export Plug-In . SVG Version: 6.00 Build 0)  -->
<!DOCTYPE svg PUBLIC "-//W3C//DTD SVG 1.1//EN" "http://www.w3.org/Graphics/SVG/1.1/DTD/svg11.dtd">
<svg version="1.1" id="Layer_1" xmlns="http://www.w3.org/2000/svg" xmlns:xlink="http://www.w3.org/1999/xlink" x="0px" y="0px"
	 width="62.925px" height="41px" viewBox="0 0 62.925 41" enable-background="new 0 0 62.925 41" xml:space="preserve">
<g>
	<defs>
		<rect id="SVGID_1_" width="62.925" height="41"/>
	</defs>
	<clipPath id="SVGID_2_">
		<use xlink:href="#SVGID_1_"  overflow="visible"/>
	</clipPath>
	<line clip-path="url(#SVGID_2_)" fill="none" stroke="#00B2EF" stroke-miterlimit="10" x1="0" y1="19.5" x2="35" y2="19.5"/>
</g>
<line fill="none" stroke="#00B2EF" stroke-miterlimit="10" x1="5" y1="27.5" x2="35" y2="27.5"/>
<line fill="none" stroke="#00B2EF" stroke-miterlimit="10" x1="14" y1="12.5" x2="35" y2="12.5"/>
<g>
	<defs>
		<rect id="SVGID_3_" width="62.925" height="41"/>
	</defs>
	<clipPath id="SVGID_4_">
		<use xlink:href="#SVGID_3_"  overflow="visible"/>
	</clipPath>
	<line clip-path="url(#SVGID_4_)" fill="none" stroke="#00B2EF" stroke-miterlimit="10" x1="51.5" y1="0" x2="51.5" y2="41"/>
	<path clip-path="url(#SVGID_4_)" fill="none" stroke="#00B2EF" stroke-miterlimit="10" d="M61.652,12.758
		c-0.079-1.557-0.409-2.889-0.99-3.998c-0.58-1.108-1.352-2.011-2.315-2.711c-0.963-0.699-2.085-1.213-3.363-1.543
		c-1.28-0.33-2.659-0.495-4.137-0.495c-1.108,0-2.229,0.138-3.363,0.415c-1.136,0.277-2.157,0.713-3.068,1.307
		c-0.91,0.593-1.649,1.372-2.216,2.335c-0.568,0.963-0.852,2.117-0.852,3.463c0,1.346,0.277,2.448,0.831,3.305
		c0.555,0.858,1.279,1.557,2.178,2.097c0.896,0.542,1.936,0.933,3.087,1.287c1.514,0.465,4.137,0.985,5.324,1.223
		c1.214,0.237,2.395,0.521,3.543,0.85c1.147,0.331,2.177,0.779,3.087,1.346c0.909,0.567,1.642,1.306,2.195,2.217
		c0.555,0.91,0.832,2.052,0.832,3.423c0,1.479-0.316,2.718-0.95,3.721s-1.432,1.82-2.395,2.454
		c-0.963,0.633-2.032,1.088-3.206,1.365s-2.302,0.416-3.384,0.416c-1.662,0-3.22-0.179-4.67-0.534
		c-1.452-0.356-2.718-0.937-3.8-1.742c-1.082-0.805-1.934-1.84-2.554-3.106s-0.917-2.811-0.89-4.631"/>
</g>
</svg>
