<?xml version="1.0" encoding="utf-8"?>
<!-- Generator: Adobe Illustrator 18.1.0, SVG Export Plug-In . SVG Version: 6.00 Build 0)  -->
<svg version="1.1" id="Layer_1" xmlns="http://www.w3.org/2000/svg" xmlns:xlink="http://www.w3.org/1999/xlink" x="0px" y="0px"
	 viewBox="0 0 63 23.6" enable-background="new 0 0 63 23.6" xml:space="preserve">
<g>
	<path d="M13,18.7h18.1c0,0.4-0.4,1.4-0.5,1.6H13V18.7L13,18.7z"/>
	<path d="M13,3.1h17.6c0.2,0.3,0.5,1.3,0.5,1.6H13V3.1L13,3.1z"/>
	<path d="M16.3,12.5h12.5c0.4,0.3,1.2,1.2,1.5,1.6h-14V12.5L16.3,12.5z"/>
	<path d="M26.1,17.3h5.2c0-0.4-0.2-1.3-0.3-1.6h-4.9V17.3L26.1,17.3z"/>
	<path d="M16.3,11h12.6c0.4-0.3,1.2-1.2,1.5-1.6h-14V11L16.3,11z"/>
	<path d="M26.1,6.2h5.2c0,0.4-0.1,1.3-0.3,1.6h-4.9V6.2L26.1,6.2z"/>
	<path d="M13,21.9h16.3c-1.4,1.2-2.7,1.6-5,1.6h-1.6H13V21.9L13,21.9z"/>
	<path d="M13,1.6h16.3c-1.4-1.2-2.7-1.6-5-1.6h-1.6H13V1.6L13,1.6z"/>
	<polygon points="11.4,1.6 0,1.6 0,0 11.4,0 11.4,1.6 	"/>
	<polygon points="11.4,4.8 0,4.8 0,3.1 11.4,3.1 11.4,4.8 	"/>
	<polygon points="11.4,20.4 0,20.4 0,18.7 11.4,18.7 11.4,20.4 	"/>
	<polygon points="8.1,17.3 3.3,17.3 3.3,15.6 8.1,15.6 8.1,17.3 	"/>
	<polygon points="8.1,14.1 3.3,14.1 3.3,12.5 8.1,12.5 8.1,14.1 	"/>
	<polygon points="8.1,11 3.3,11 3.3,9.4 8.1,9.4 8.1,11 	"/>
	<polygon points="8.1,7.9 3.3,7.9 3.3,6.2 8.1,6.2 8.1,7.9 	"/>
	<polygon points="21.2,17.3 16.3,17.3 16.3,15.6 21.2,15.6 21.2,17.3 	"/>
	<polygon points="21.2,7.9 16.3,7.9 16.3,6.2 21.2,6.2 21.2,7.9 	"/>
	<polygon points="43.4,17.3 47.9,17.3 48.5,15.6 42.8,15.6 43.4,17.3 	"/>
	<polygon points="42.3,14.1 49,14.1 49.5,12.5 41.7,12.5 42.3,14.1 	"/>
	<polygon points="11.4,23.5 0,23.5 0,21.9 11.4,21.9 11.4,23.5 	"/>
	<polygon points="45.5,23.5 45.7,23.5 46.3,21.9 45,21.9 45.5,23.5 	"/>
	<polygon points="40.7,17.3 35.8,17.3 35.8,15.6 40.7,15.6 40.7,17.3 	"/>
	<polygon points="40.7,14.1 35.8,14.1 35.8,12.5 40.7,12.5 40.7,14.1 	"/>
	<polygon points="40.7,23.5 32.6,23.5 32.6,21.9 40.7,21.9 40.7,23.5 	"/>
	<polygon points="40.7,20.4 32.6,20.4 32.6,18.7 40.7,18.7 40.7,20.4 	"/>
	<polygon points="44.4,20.4 46.8,20.4 47.4,18.7 43.9,18.7 44.4,20.4 	"/>
	<polygon points="55.4,17.3 50.5,17.3 50.5,15.6 55.4,15.6 55.4,17.3 	"/>
	<polygon points="55.4,14.1 50.5,14.1 50.5,12.5 55.4,12.5 55.4,14.1 	"/>
	<polygon points="58.7,23.5 50.5,23.5 50.5,21.9 58.7,21.9 58.7,23.5 	"/>
	<polygon points="58.7,20.4 50.5,20.4 50.5,18.7 58.7,18.7 58.7,20.4 	"/>
	<polygon points="44,6.2 35.8,6.2 35.8,7.9 44.6,7.9 44,6.2 	"/>
	<polygon points="46.1,9.4 45.6,10.9 45.1,9.4 35.8,9.4 35.8,11 40.7,11 40.7,9.7 41.2,11 50.1,11 50.5,9.7 50.5,9.7 50.5,9.7 
		50.5,11 55.4,11 55.4,9.4 46.1,9.4 	"/>
	<polygon points="41.8,0 32.6,0 32.6,1.6 42.4,1.6 41.8,0 	"/>
	<polygon points="42.9,3.1 32.6,3.1 32.6,4.8 43.5,4.8 42.9,3.1 	"/>
	<polygon points="47.2,6.2 55.4,6.2 55.4,7.9 46.7,7.9 47.2,6.2 	"/>
	<polygon points="49.5,0 58.7,0 58.7,1.6 48.9,1.6 49.5,0 	"/>
	<g>
		<polygon points="48.3,3.1 58.7,3.1 58.7,4.8 47.8,4.8 48.3,3.1 		"/>
		<path d="M61.7,22.2c0.2,0,0.5,0,0.5-0.3c0-0.2-0.2-0.3-0.4-0.3h-0.4v0.5H61.7L61.7,22.2z M62.4,23h-0.2l-0.4-0.7h-0.3V23h-0.2
			v-1.4h0.6c0.4,0,0.5,0.1,0.5,0.4c0,0.3-0.2,0.4-0.5,0.4L62.4,23L62.4,23z M62.8,22.3c0-0.6-0.5-1.1-1.1-1.1
			c-0.6,0-1.1,0.5-1.1,1.1c0,0.6,0.5,1.1,1.1,1.1C62.3,23.4,62.8,22.9,62.8,22.3L62.8,22.3z M60.4,22.3c0-0.7,0.6-1.3,1.3-1.3
			c0.7,0,1.3,0.6,1.3,1.3c0,0.7-0.6,1.3-1.3,1.3C61,23.6,60.4,23,60.4,22.3L60.4,22.3z"/>
	</g>
</g>
</svg>
