<?xml version="1.0" encoding="utf-8"?>
<!-- Generator: Adobe Illustrator 16.0.0, SVG Export Plug-In . SVG Version: 6.00 Build 0)  -->
<!DOCTYPE svg PUBLIC "-//W3C//DTD SVG 1.1//EN" "http://www.w3.org/Graphics/SVG/1.1/DTD/svg11.dtd">
<svg version="1.1" id="Layer_1" xmlns="http://www.w3.org/2000/svg" xmlns:xlink="http://www.w3.org/1999/xlink" x="0px" y="0px"
	 width="66.919px" height="32.331px" viewBox="0 0 66.919 32.331" enable-background="new 0 0 66.919 32.331" xml:space="preserve">
<g>
	<defs>
		<rect id="SVGID_1_" y="0" width="66.919" height="32.331"/>
	</defs>
	<clipPath id="SVGID_2_">
		<use xlink:href="#SVGID_1_"  overflow="visible"/>
	</clipPath>
	<path clip-path="url(#SVGID_2_)" fill="none" stroke="#00A6A0" stroke-miterlimit="10" d="M7.063,13.527v8.363l8.946,5.163
		l8.943-5.163v-8.363 M36.796,20.819c2.16-3.658,3.798-6.48,5.979-6.48l0.017,1.843v5.628l8.946,5.166l8.943-5.166v-6.992h5.738
		v17.013H45.255c-3.77,0-8.873-7.716-9.938-9.69l0.009-0.007c-0.458-0.88-4.633-8.606-9.754-8.606h-0.619v-3.07L16.01,5.291
		l-8.946,5.166v3.07H0.5v18.304h25.072c4.169,0,6.814-4.892,8.861-7.532 M60.682,16.182v-5.806l-6.968-4.019l0.054-0.033
		l-9.957-5.746l-9.956,5.746l8.938,5.162l-0.027,4.696 M52.734,5.728l-9.942,5.758 M51.718,25.85l-0.046,1.126V15.522l9.01-5.146
		 M24.953,10.457l-8.907,5.127L16.01,27.053 M16.045,15.584l-8.982-5.127"/>
</g>
</svg>
