<?xml version="1.0" encoding="utf-8"?>
<!-- Generator: Adobe Illustrator 16.0.0, SVG Export Plug-In . SVG Version: 6.00 Build 0)  -->
<!DOCTYPE svg PUBLIC "-//W3C//DTD SVG 1.1//EN" "http://www.w3.org/Graphics/SVG/1.1/DTD/svg11.dtd">
<svg version="1.1" id="Layer_1" xmlns="http://www.w3.org/2000/svg" xmlns:xlink="http://www.w3.org/1999/xlink" x="0px" y="0px"
	 width="50.674px" height="24.635px" viewBox="0 0 50.674 24.635" enable-background="new 0 0 50.674 24.635" xml:space="preserve">
<g>
	<defs>
		<rect id="SVGID_1_" width="50.674" height="24.635"/>
	</defs>
	<clipPath id="SVGID_2_">
		<use xlink:href="#SVGID_1_"  overflow="visible"/>
	</clipPath>
	<path clip-path="url(#SVGID_2_)" fill="none" stroke="#00A6A0" stroke-width="1.204" stroke-miterlimit="10" d="M38.356,0.603
		c-3.122,0-6.065,1.22-8.282,3.435c-0.944,0.941-12.687,13.23-14.04,14.604c-1.707,1.733-3.986,2.688-6.42,2.688
		c-4.969,0-9.012-4.044-9.012-9.011c0-4.969,4.043-9.011,9.012-9.011c2.407,0,4.666,0.934,6.373,2.64l9.262,9.646
		c1.629,1.702,3.721,3.888,4.763,4.942c2.216,2.253,5.183,3.497,8.344,3.497c6.462,0,11.715-5.257,11.715-11.714
		C50.071,5.857,44.818,0.603,38.356,0.603"/>
	
		<circle clip-path="url(#SVGID_2_)" fill="none" stroke="#00A6A0" stroke-width="1.204" stroke-miterlimit="10" cx="38.692" cy="12.592" r="5.701"/>
	
		<circle clip-path="url(#SVGID_2_)" fill="none" stroke="#00A6A0" stroke-width="1.204" stroke-miterlimit="10" cx="38.691" cy="12.592" r="8.735"/>
	
		<circle clip-path="url(#SVGID_2_)" fill="none" stroke="#00A6A0" stroke-width="1.204" stroke-miterlimit="10" cx="38.691" cy="12.592" r="2.782"/>
	
		<circle clip-path="url(#SVGID_2_)" fill="none" stroke="#00A6A0" stroke-width="1.204" stroke-miterlimit="10" cx="9.103" cy="12.592" r="5.7"/>
	
		<circle clip-path="url(#SVGID_2_)" fill="none" stroke="#00A6A0" stroke-width="1.204" stroke-miterlimit="10" cx="9.103" cy="12.592" r="2.782"/>
</g>
</svg>
