<?xml version="1.0" encoding="utf-8"?>
<!-- Generator: Adobe Illustrator 16.0.0, SVG Export Plug-In . SVG Version: 6.00 Build 0)  -->
<!DOCTYPE svg PUBLIC "-//W3C//DTD SVG 1.1//EN" "http://www.w3.org/Graphics/SVG/1.1/DTD/svg11.dtd">
<svg version="1.1" id="Layer_1" xmlns="http://www.w3.org/2000/svg" xmlns:xlink="http://www.w3.org/1999/xlink" x="0px" y="0px"
	 width="41.566px" height="34.649px" viewBox="0 0 41.566 34.649" enable-background="new 0 0 41.566 34.649" xml:space="preserve">
<g>
	<defs>
		<rect id="SVGID_1_" width="41.566" height="34.649"/>
	</defs>
	<clipPath id="SVGID_2_">
		<use xlink:href="#SVGID_1_"  overflow="visible"/>
	</clipPath>
	<path clip-path="url(#SVGID_2_)" fill="none" stroke="#99CC33" stroke-miterlimit="10" d="M12.938,16.72
		c-2.33-3.034-3.302-3.9-5.699-3.9H5.597c-2.813,0-5.097,2.283-5.097,5.101v16.229h10.355V22.975h0.756l5.007,5.666l4.043-2.983
		L12.938,16.72"/>
	<path clip-path="url(#SVGID_2_)" fill="none" stroke="#99CC33" stroke-miterlimit="10" d="M7.04,10.702
		c2.818,0,5.101-2.287,5.101-5.101c0-2.818-2.283-5.101-5.101-5.101c-2.815,0-5.097,2.283-5.097,5.101
		C1.943,8.415,4.225,10.702,7.04,10.702"/>
	<path clip-path="url(#SVGID_2_)" fill="none" stroke="#99CC33" stroke-miterlimit="10" d="M35.965,12.82h-1.642
		c-2.397,0-3.37,0.866-5.697,3.9l-7.765,8.855l4.134,2.96l4.956-5.56h0.76v11.174h10.355V17.92
		C41.066,15.103,38.779,12.82,35.965,12.82"/>
	<path clip-path="url(#SVGID_2_)" fill="none" stroke="#99CC33" stroke-miterlimit="10" d="M34.522,10.702
		c2.813,0,5.101-2.287,5.101-5.101c0-2.818-2.287-5.101-5.101-5.101c-2.818,0-5.101,2.283-5.101,5.101
		C29.422,8.415,31.704,10.702,34.522,10.702"/>
	<path clip-path="url(#SVGID_2_)" fill="none" stroke="#99CC33" stroke-miterlimit="10" d="M16.618,28.64
		c0,0,3.421,5.453,8.377-0.105"/>
</g>
</svg>
