<?xml version="1.0" encoding="utf-8"?>
<!-- Generator: Adobe Illustrator 16.0.0, SVG Export Plug-In . SVG Version: 6.00 Build 0)  -->
<!DOCTYPE svg PUBLIC "-//W3C//DTD SVG 1.1//EN" "http://www.w3.org/Graphics/SVG/1.1/DTD/svg11.dtd">
<svg version="1.1" id="Layer_1" xmlns="http://www.w3.org/2000/svg" xmlns:xlink="http://www.w3.org/1999/xlink" x="0px" y="0px"
	 width="376.984px" height="371.421px" viewBox="0 0 376.984 371.421" enable-background="new 0 0 376.984 371.421"
	 xml:space="preserve">
<g>
	<defs>
		<rect id="SVGID_1_" width="376.984" height="371.421"/>
	</defs>
	<clipPath id="SVGID_2_">
		<use xlink:href="#SVGID_1_"  overflow="visible"/>
	</clipPath>
	<g clip-path="url(#SVGID_2_)">
		<defs>
			<rect id="SVGID_3_" width="376.984" height="371.421"/>
		</defs>
		<clipPath id="SVGID_4_">
			<use xlink:href="#SVGID_3_"  overflow="visible"/>
		</clipPath>
		<g opacity="0.5" clip-path="url(#SVGID_4_)">
			<g>
				<defs>
					<rect id="SVGID_5_" width="376.984" height="371.421"/>
				</defs>
				<clipPath id="SVGID_6_">
					<use xlink:href="#SVGID_5_"  overflow="visible"/>
				</clipPath>
				<polyline clip-path="url(#SVGID_6_)" fill="none" stroke="#DFE6EB" stroke-width="2.759" stroke-miterlimit="10" points="
					0.947,163.133 99.155,212.249 228.401,282.937 				"/>
				
					<line clip-path="url(#SVGID_6_)" fill="none" stroke="#DFE6EB" stroke-width="2.759" stroke-miterlimit="10" x1="228.401" y1="282.936" x2="340.35" y2="223.193"/>
				<path clip-path="url(#SVGID_6_)" fill="none" stroke="#DFE6EB" stroke-width="2.759" stroke-miterlimit="10" d="M160.047,60.511
					c0,6.259-5.121,11.379-11.379,11.379h-47.752c-6.258,0-11.379-5.12-11.379-11.379V12.758c0-6.258,5.121-11.379,11.379-11.379
					h47.752c6.258,0,11.379,5.121,11.379,11.379V60.511z"/>
				<path clip-path="url(#SVGID_6_)" fill="none" stroke="#DFE6EB" stroke-width="2.759" stroke-miterlimit="10" d="
					M137.535,358.662c0,6.259-5.121,11.379-11.379,11.379H78.404c-6.258,0-11.379-5.12-11.379-11.379V310.91
					c0-6.258,5.121-11.379,11.379-11.379h47.752c6.258,0,11.379,5.121,11.379,11.379V358.662z"/>
				<path clip-path="url(#SVGID_6_)" fill="none" stroke="#DFE6EB" stroke-width="2.759" stroke-miterlimit="10" d="
					M375.604,247.069c0,6.259-5.121,11.379-11.379,11.379h-47.752c-6.258,0-11.379-5.12-11.379-11.379v-47.752
					c0-6.259,5.121-11.38,11.379-11.38h47.752c6.258,0,11.379,5.121,11.379,11.38V247.069z"/>
				<polyline clip-path="url(#SVGID_6_)" fill="none" stroke="#DFE6EB" stroke-width="2.759" stroke-miterlimit="10" points="
					125.514,35.836 43.223,118.928 99.154,212.25 0.947,304.873 				"/>
				
					<line clip-path="url(#SVGID_6_)" fill="none" stroke="#DFE6EB" stroke-width="2.759" stroke-miterlimit="10" x1="220.159" y1="93.805" x2="99.154" y2="213.288"/>
				
					<line clip-path="url(#SVGID_6_)" fill="none" stroke="#DFE6EB" stroke-width="2.759" stroke-miterlimit="10" x1="99.536" y1="335.171" x2="99.154" y2="212.249"/>
				<path clip-path="url(#SVGID_6_)" fill="#FFFFFF" d="M124.405,24.419c6.736-0.209,12.391,5.096,12.599,11.832
					c0.209,6.77-5.096,12.39-11.83,12.599c-6.737,0.209-12.391-5.096-12.601-11.831v-0.385
					C112.573,30.073,117.808,24.629,124.405,24.419"/>
				
					<path clip-path="url(#SVGID_6_)" fill="none" stroke="#41D6C3" stroke-width="2.759" stroke-miterlimit="5" stroke-dasharray="179.871,15.418" d="
					M124.405,24.419c6.736-0.209,12.391,5.096,12.599,11.832c0.209,6.77-5.096,12.39-11.83,12.599
					c-6.737,0.209-12.391-5.096-12.601-11.831v-0.385C112.573,30.073,117.808,24.629,124.405,24.419z"/>
				<path clip-path="url(#SVGID_6_)" fill="#FFFFFF" d="M42.438,106.712c6.736-0.209,12.391,5.096,12.599,11.832
					c0.209,6.77-5.096,12.39-11.83,12.599c-6.737,0.209-12.391-5.096-12.601-11.831v-0.385
					C30.605,112.366,35.841,106.922,42.438,106.712"/>
				
					<path clip-path="url(#SVGID_6_)" fill="none" stroke="#5AAAFA" stroke-width="2.759" stroke-miterlimit="5" stroke-dasharray="179.871,15.418" d="
					M42.438,106.712c6.736-0.209,12.391,5.096,12.599,11.832c0.209,6.77-5.096,12.39-11.83,12.599
					c-6.737,0.209-12.391-5.096-12.601-11.831v-0.385C30.605,112.366,35.841,106.922,42.438,106.712z"/>
				<path clip-path="url(#SVGID_6_)" fill="#FFFFFF" d="M339.963,208.751c6.736-0.209,12.391,5.097,12.599,11.832
					c0.209,6.771-5.096,12.391-11.83,12.6c-6.736,0.209-12.391-5.097-12.601-11.831v-0.386
					C328.131,214.405,333.366,208.961,339.963,208.751"/>
				
					<path clip-path="url(#SVGID_6_)" fill="none" stroke="#41D6C3" stroke-width="2.759" stroke-miterlimit="5" stroke-dasharray="179.871,15.418" d="
					M339.963,208.751c6.736-0.209,12.391,5.097,12.599,11.832c0.209,6.771-5.096,12.391-11.83,12.6
					c-6.736,0.209-12.391-5.097-12.601-11.831v-0.386C328.131,214.405,333.366,208.961,339.963,208.751z"/>
				<path clip-path="url(#SVGID_6_)" fill="#FFFFFF" d="M99.474,200.034c6.736-0.209,12.391,5.097,12.599,11.832
					c0.209,6.771-5.096,12.391-11.83,12.6c-6.737,0.209-12.391-5.097-12.601-11.831v-0.386
					C87.642,205.688,92.877,200.244,99.474,200.034"/>
				
					<path clip-path="url(#SVGID_6_)" fill="none" stroke="#41D6C3" stroke-width="2.759" stroke-miterlimit="5" stroke-dasharray="179.871,15.418" d="
					M99.474,200.034c6.736-0.209,12.391,5.097,12.599,11.832c0.209,6.771-5.096,12.391-11.83,12.6
					c-6.737,0.209-12.391-5.097-12.601-11.831v-0.386C87.642,205.688,92.877,200.244,99.474,200.034z"/>
				<path clip-path="url(#SVGID_6_)" fill="#FFFFFF" d="M227.449,271.398c6.736-0.209,12.391,5.096,12.599,11.832
					c0.209,6.77-5.096,12.39-11.83,12.599c-6.736,0.209-12.391-5.096-12.601-11.831v-0.385
					C215.617,277.053,220.853,271.608,227.449,271.398"/>
				
					<path clip-path="url(#SVGID_6_)" fill="none" stroke="#5AAAFA" stroke-width="2.759" stroke-miterlimit="5" stroke-dasharray="179.871,15.418" d="
					M227.449,271.398c6.736-0.209,12.391,5.096,12.599,11.832c0.209,6.77-5.096,12.39-11.83,12.599
					c-6.736,0.209-12.391-5.096-12.601-11.831v-0.385C215.617,277.053,220.853,271.608,227.449,271.398z"/>
				<path clip-path="url(#SVGID_6_)" fill="#FFFFFF" d="M99.474,322.571c6.736-0.209,12.391,5.096,12.599,11.832
					c0.209,6.77-5.096,12.39-11.83,12.599c-6.737,0.209-12.391-5.096-12.601-11.831v-0.385
					C87.642,328.225,92.877,322.781,99.474,322.571"/>
				
					<path clip-path="url(#SVGID_6_)" fill="none" stroke="#5AAAFA" stroke-width="2.759" stroke-miterlimit="5" stroke-dasharray="179.871,15.418" d="
					M99.474,322.571c6.736-0.209,12.391,5.096,12.599,11.832c0.209,6.77-5.096,12.39-11.83,12.599
					c-6.737,0.209-12.391-5.096-12.601-11.831v-0.385C87.642,328.225,92.877,322.781,99.474,322.571z"/>
				<path clip-path="url(#SVGID_6_)" fill="#FFFFFF" d="M220.089,81.589c6.735-0.209,12.391,5.096,12.599,11.832
					c0.209,6.77-5.096,12.39-11.83,12.599c-6.737,0.209-12.391-5.096-12.601-11.831v-0.385
					C208.257,87.244,213.491,81.799,220.089,81.589"/>
				
					<path clip-path="url(#SVGID_6_)" fill="none" stroke="#5AAAFA" stroke-width="2.759" stroke-miterlimit="5" stroke-dasharray="179.871,15.418" d="
					M220.089,81.589c6.735-0.209,12.391,5.096,12.599,11.832c0.209,6.77-5.096,12.39-11.83,12.599
					c-6.737,0.209-12.391-5.096-12.601-11.831v-0.385C208.257,87.244,213.491,81.799,220.089,81.589z"/>
			</g>
		</g>
	</g>
</g>
</svg>
