<?xml version="1.0" encoding="utf-8"?>
<!-- Generator: Adobe Illustrator 16.0.0, SVG Export Plug-In . SVG Version: 6.00 Build 0)  -->
<!DOCTYPE svg PUBLIC "-//W3C//DTD SVG 1.1//EN" "http://www.w3.org/Graphics/SVG/1.1/DTD/svg11.dtd">
<svg version="1.1" id="Layer_1" xmlns="http://www.w3.org/2000/svg" xmlns:xlink="http://www.w3.org/1999/xlink" x="0px" y="0px"
	 width="311.264px" height="352.637px" viewBox="0 0 311.264 352.637" enable-background="new 0 0 311.264 352.637"
	 xml:space="preserve">
<g>
	<defs>
		<rect id="SVGID_1_" width="311.264" height="352.637"/>
	</defs>
	<clipPath id="SVGID_2_">
		<use xlink:href="#SVGID_1_"  overflow="visible"/>
	</clipPath>
	<g clip-path="url(#SVGID_2_)">
		<defs>
			<rect id="SVGID_3_" width="311.263" height="352.637"/>
		</defs>
		<clipPath id="SVGID_4_">
			<use xlink:href="#SVGID_3_"  overflow="visible"/>
		</clipPath>
		<g opacity="0.5" clip-path="url(#SVGID_4_)">
			<g>
				<defs>
					<rect id="SVGID_5_" width="311.264" height="352.637"/>
				</defs>
				<clipPath id="SVGID_6_">
					<use xlink:href="#SVGID_5_"  overflow="visible"/>
				</clipPath>
				<polyline clip-path="url(#SVGID_6_)" fill="none" stroke="#DFE6EB" stroke-width="2.549" stroke-miterlimit="10" points="
					73.046,158.902 193.89,209.216 283.481,267.487 158.687,339.071 				"/>
				
					<line clip-path="url(#SVGID_6_)" fill="none" stroke="#DFE6EB" stroke-width="2.549" stroke-miterlimit="10" x1="283.481" y1="267.487" x2="263.417" y2="337.202"/>
				<path clip-path="url(#SVGID_6_)" fill="none" stroke="#DFE6EB" stroke-width="2.549" stroke-miterlimit="10" d="M124.043,54.041
					c0,5.781-4.73,10.511-10.511,10.511H71.277c-5.781,0-10.511-4.73-10.511-10.511V11.786c0-5.781,4.73-10.511,10.511-10.511
					h42.255c5.781,0,10.511,4.73,10.511,10.511V54.041z"/>
				<path clip-path="url(#SVGID_6_)" fill="none" stroke="#DFE6EB" stroke-width="2.549" stroke-miterlimit="10" d="M64.551,340.852
					c0,5.78-4.73,10.511-10.511,10.511H11.785c-5.781,0-10.511-4.73-10.511-10.511v-42.255c0-5.781,4.73-10.512,10.511-10.512H54.04
					c5.781,0,10.511,4.73,10.511,10.512V340.852z"/>
				<polyline clip-path="url(#SVGID_6_)" fill="none" stroke="#DFE6EB" stroke-width="2.549" stroke-miterlimit="10" points="
					93.053,32.196 225.779,142.562 193.889,209.216 34.493,315.066 				"/>
				
					<line clip-path="url(#SVGID_6_)" fill="none" stroke="#DFE6EB" stroke-width="2.549" stroke-miterlimit="10" x1="310.64" y1="144.643" x2="193.889" y2="210.148"/>
				
					<line clip-path="url(#SVGID_6_)" fill="none" stroke="#DFE6EB" stroke-width="2.549" stroke-miterlimit="10" x1="158.686" y1="339.071" x2="193.889" y2="209.215"/>
				<path clip-path="url(#SVGID_6_)" fill="#FFFFFF" d="M92.058,21.951c6.045-0.187,11.12,4.573,11.306,10.618
					c0.188,6.076-4.572,11.119-10.616,11.306c-6.046,0.188-11.12-4.572-11.308-10.617v-0.345
					C81.439,27.025,86.138,22.139,92.058,21.951"/>
				
					<path clip-path="url(#SVGID_6_)" fill="none" stroke="#41D6C3" stroke-width="2.549" stroke-miterlimit="5" stroke-dasharray="166.148,14.241" d="
					M92.058,21.951c6.045-0.187,11.12,4.573,11.306,10.618c0.188,6.076-4.572,11.119-10.616,11.306
					c-6.046,0.188-11.12-4.572-11.308-10.617v-0.345C81.439,27.025,86.138,22.139,92.058,21.951z"/>
				<path clip-path="url(#SVGID_6_)" fill="#FFFFFF" d="M225.074,131.6c6.046-0.187,11.12,4.573,11.307,10.618
					c0.188,6.076-4.572,11.119-10.616,11.306c-6.046,0.188-11.12-4.572-11.308-10.617v-0.345
					C214.457,136.674,219.154,131.788,225.074,131.6"/>
				
					<path clip-path="url(#SVGID_6_)" fill="none" stroke="#5AAAFA" stroke-width="2.549" stroke-miterlimit="5" stroke-dasharray="166.148,14.241" d="
					M225.074,131.6c6.046-0.187,11.12,4.573,11.307,10.618c0.188,6.076-4.572,11.119-10.616,11.306
					c-6.046,0.188-11.12-4.572-11.308-10.617v-0.345C214.457,136.674,219.154,131.788,225.074,131.6z"/>
				<path clip-path="url(#SVGID_6_)" fill="#FFFFFF" d="M263.07,324.242c6.045-0.188,11.119,4.573,11.306,10.618
					c0.188,6.075-4.572,11.118-10.616,11.306c-6.046,0.188-11.12-4.572-11.308-10.617v-0.345
					C252.452,329.316,257.149,324.429,263.07,324.242"/>
				
					<path clip-path="url(#SVGID_6_)" fill="none" stroke="#41D6C3" stroke-width="2.549" stroke-miterlimit="5" stroke-dasharray="166.148,14.241" d="
					M263.07,324.242c6.045-0.188,11.119,4.573,11.306,10.618c0.188,6.075-4.572,11.118-10.616,11.306
					c-6.046,0.188-11.12-4.572-11.308-10.617v-0.345C252.452,329.316,257.149,324.429,263.07,324.242z"/>
				<path clip-path="url(#SVGID_6_)" fill="#FFFFFF" d="M194.176,198.254c6.045-0.188,11.12,4.572,11.306,10.618
					c0.188,6.075-4.572,11.118-10.616,11.306c-6.046,0.188-11.12-4.572-11.308-10.617v-0.345
					C183.558,203.328,188.256,198.442,194.176,198.254"/>
				
					<path clip-path="url(#SVGID_6_)" fill="none" stroke="#41D6C3" stroke-width="2.549" stroke-miterlimit="5" stroke-dasharray="166.148,14.241" d="
					M194.176,198.254c6.045-0.188,11.12,4.572,11.306,10.618c0.188,6.075-4.572,11.118-10.616,11.306
					c-6.046,0.188-11.12-4.572-11.308-10.617v-0.345C183.558,203.328,188.256,198.442,194.176,198.254z"/>
				<path clip-path="url(#SVGID_6_)" fill="#FFFFFF" d="M32.566,308.762c6.045-0.187,11.12,4.573,11.306,10.618
					c0.188,6.076-4.572,11.119-10.616,11.306c-6.046,0.188-11.12-4.572-11.308-10.617v-0.345
					C21.948,313.836,26.646,308.951,32.566,308.762"/>
				
					<path clip-path="url(#SVGID_6_)" fill="none" stroke="#5AAAFA" stroke-width="2.549" stroke-miterlimit="5" stroke-dasharray="166.148,14.241" d="
					M32.566,308.762c6.045-0.187,11.12,4.573,11.306,10.618c0.188,6.076-4.572,11.119-10.616,11.306
					c-6.046,0.188-11.12-4.572-11.308-10.617v-0.345C21.948,313.836,26.646,308.951,32.566,308.762z"/>
				<path clip-path="url(#SVGID_6_)" fill="#FFFFFF" d="M282.627,257.133c6.045-0.188,11.12,4.573,11.306,10.618
					c0.188,6.076-4.571,11.119-10.616,11.306c-6.046,0.188-11.119-4.572-11.308-10.617v-0.345
					C272.009,262.208,276.707,257.321,282.627,257.133"/>
				
					<path clip-path="url(#SVGID_6_)" fill="none" stroke="#5AAAFA" stroke-width="2.549" stroke-miterlimit="5" stroke-dasharray="166.148,14.241" d="
					M282.627,257.133c6.045-0.188,11.12,4.573,11.306,10.618c0.188,6.076-4.571,11.119-10.616,11.306
					c-6.046,0.188-11.119-4.572-11.308-10.617v-0.345C272.009,262.208,276.707,257.321,282.627,257.133z"/>
				<path clip-path="url(#SVGID_6_)" fill="#FFFFFF" d="M158.63,327.764c6.045-0.188,11.12,4.572,11.306,10.617
					c0.188,6.076-4.571,11.119-10.615,11.307c-6.046,0.188-11.121-4.572-11.309-10.617v-0.345
					C148.012,332.837,152.71,327.952,158.63,327.764"/>
				
					<path clip-path="url(#SVGID_6_)" fill="none" stroke="#5AAAFA" stroke-width="2.549" stroke-miterlimit="5" stroke-dasharray="166.148,14.241" d="
					M158.63,327.764c6.045-0.188,11.12,4.572,11.306,10.617c0.188,6.076-4.571,11.119-10.615,11.307
					c-6.046,0.188-11.121-4.572-11.309-10.617v-0.345C148.012,332.837,152.71,327.952,158.63,327.764z"/>
				<path clip-path="url(#SVGID_6_)" fill="#FFFFFF" d="M72.699,147.94c6.045-0.187,11.12,4.573,11.306,10.618
					c0.188,6.076-4.572,11.119-10.616,11.306c-6.046,0.188-11.12-4.572-11.308-10.617v-0.345
					C62.082,153.014,66.779,148.128,72.699,147.94"/>
				
					<path clip-path="url(#SVGID_6_)" fill="none" stroke="#5AAAFA" stroke-width="2.549" stroke-miterlimit="5" stroke-dasharray="166.148,14.241" d="
					M72.699,147.94c6.045-0.187,11.12,4.573,11.306,10.618c0.188,6.076-4.572,11.119-10.616,11.306
					c-6.046,0.188-11.12-4.572-11.308-10.617v-0.345C62.082,153.014,66.779,148.128,72.699,147.94z"/>
			</g>
		</g>
	</g>
</g>
</svg>
