<?xml version="1.0" encoding="utf-8"?>
<!-- Generator: Adobe Illustrator 18.1.0, SVG Export Plug-In . SVG Version: 6.00 Build 0)  -->
<svg version="1.1" id="Layer_1" xmlns="http://www.w3.org/2000/svg" xmlns:xlink="http://www.w3.org/1999/xlink" x="0px" y="0px"
	 viewBox="0 0 56 54" enable-background="new 0 0 56 54" xml:space="preserve">
<g display="none">
	<linearGradient id="SVGID_1_" gradientUnits="userSpaceOnUse" x1="-262.1467" y1="-56.2132" x2="1337.0132" y2="390.8315">
		<stop  offset="0" style="stop-color:#00B0DA"/>
		<stop  offset="1" style="stop-color:#00A6A0"/>
	</linearGradient>
	<path display="inline" fill="url(#SVGID_1_)" d="M23.3,21.9v-0.3V17c0-2.3-0.3-4-1.2-5.1c-0.8-1-2.3-1.6-4.6-1.6
		c0.8-0.6,1.5-1.2,1.9-1.8C20,8,20.2,7.3,20.2,6.5c0-1-0.4-1.8-1-2.6c-0.7-0.8-1.5-1.2-2.6-1.2c-1,0.1-1.9,0.5-2.6,1.2
		c-0.7,0.8-1,1.6-1,2.6c0,0.8,0.2,1.5,0.7,2.1c0.4,0.6,1.1,1.2,1.9,1.8c-2.2,0-3.7,0.5-4.6,1.6c-0.8,1-1.2,2.7-1.2,5.1v4.6
		c0,2,0.1,3.4,0.5,4.1c0.4,0.8,1.3,1.3,2.6,1.5v12.5h7V27.6l0-0.3C20.1,24.8,21.5,22.2,23.3,21.9"/>
	<linearGradient id="SVGID_2_" gradientUnits="userSpaceOnUse" x1="-258.5733" y1="-61.8416" x2="1340.5867" y2="385.2031">
		<stop  offset="0" style="stop-color:#00B0DA"/>
		<stop  offset="1" style="stop-color:#00A6A0"/>
	</linearGradient>
	<path display="inline" fill="url(#SVGID_2_)" d="M45.9,12c-0.8-1-2.3-1.6-4.6-1.6c0.8-0.6,1.5-1.2,1.9-1.8c0.4-0.6,0.7-1.3,0.7-2.1
		c0-1-0.4-1.8-1-2.6c-0.7-0.8-1.5-1.2-2.5-1.2c-1,0.1-1.9,0.5-2.6,1.2c-0.7,0.8-1,1.6-1,2.6c0,0.8,0.2,1.5,0.7,2.1
		c0.4,0.6,1.1,1.2,1.9,1.8c-2.2,0-3.7,0.5-4.6,1.6c-0.8,1-1.2,2.7-1.2,5.1v4.6l0,0.3c1.8,0.3,3.2,2.8,3.2,5.4l0,0.2v12.3h7V27.3
		c1.4-0.3,2.3-0.8,2.7-1.6c0.4-0.8,0.6-2.1,0.5-4.1V17C47.1,14.7,46.7,13,45.9,12"/>
	<linearGradient id="SVGID_3_" gradientUnits="userSpaceOnUse" x1="-263.2696" y1="-47.6193" x2="1335.8904" y2="399.4254">
		<stop  offset="0" style="stop-color:#00B0DA"/>
		<stop  offset="1" style="stop-color:#00A6A0"/>
	</linearGradient>
	<path display="inline" fill="url(#SVGID_3_)" d="M32.1,39.8c1.4-0.3,2.3-0.8,2.6-1.6c0.4-0.8,0.6-2.1,0.5-4.1v-4.6
		c0-2.3-0.3-4-1.2-5.1c-0.8-1-2.3-1.6-4.6-1.6c0.9-0.6,1.5-1.2,1.9-1.8c0.4-0.6,0.7-1.3,0.7-2.1c0-1-0.4-1.8-1-2.6
		c-0.7-0.8-1.5-1.2-2.6-1.2c-1,0-1.9,0.4-2.5,1.2c-0.7,0.8-1,1.6-1,2.6c0,0.8,0.2,1.5,0.7,2.1c0.4,0.6,1.1,1.2,1.9,1.8
		c-2.2,0-3.7,0.5-4.6,1.6c-0.8,1-1.2,2.7-1.2,5.1v4.6c0,2,0.1,3.4,0.5,4.1c0.4,0.8,1.3,1.3,2.6,1.5L21.4,47h5l1,5.3h2.3l1-5.3h5
		L32.1,39.8"/>
</g>
<g display="none">
	<linearGradient id="SVGID_4_" gradientUnits="userSpaceOnUse" x1="-582.1295" y1="-136.55" x2="1017.0305" y2="310.4947">
		<stop  offset="0" style="stop-color:#00B0DA"/>
		<stop  offset="1" style="stop-color:#00A6A0"/>
	</linearGradient>
	<path display="inline" fill="url(#SVGID_4_)" d="M32.9,20.1C32.9,20.1,32.8,20.1,32.9,20.1c-0.2-0.1-0.3-0.2-0.4-0.2
		c-0.8-0.4-1.7-0.7-2.6-0.9c-0.2,0-0.3,0-0.5-0.1c-0.3,0-0.6,0-0.8,0s-0.6,0-0.8,0c-0.2,0-0.3,0-0.5,0.1c-0.9,0.1-1.8,0.4-2.6,0.9
		c-0.1,0-0.2,0.1-0.3,0.2c0,0-0.1,0-0.1,0.1c-2.4,1.5-4,4.1-4,7.1v0v13.9c0,4.6,3.7,8.3,8.3,8.3s8.3-3.7,8.3-8.3V27.2l0,0
		C36.9,24.2,35.3,21.6,32.9,20.1 M28.6,31.8c-2.5,0-4.6-2.1-4.6-4.6c0-2.5,2.1-4.6,4.6-4.6c2.5,0,4.6,2.1,4.6,4.6
		C33.2,29.7,31.1,31.8,28.6,31.8z"/>
	<linearGradient id="SVGID_5_" gradientUnits="userSpaceOnUse" x1="-575.8988" y1="-158.8383" x2="1023.2611" y2="288.2065">
		<stop  offset="0" style="stop-color:#00B0DA"/>
		<stop  offset="1" style="stop-color:#00A6A0"/>
	</linearGradient>
	<path display="inline" fill="url(#SVGID_5_)" d="M28.6,15.3c-1,0-1.9-0.8-1.9-1.9V6.9c0-1,0.8-1.9,1.9-1.9c1,0,1.8,0.8,1.8,1.9v6.6
		C30.5,14.5,29.6,15.3,28.6,15.3"/>
	<linearGradient id="SVGID_6_" gradientUnits="userSpaceOnUse" x1="-579.1968" y1="-147.0408" x2="1019.9631" y2="300.0039">
		<stop  offset="0" style="stop-color:#00B0DA"/>
		<stop  offset="1" style="stop-color:#00A6A0"/>
	</linearGradient>
	<path display="inline" fill="url(#SVGID_6_)" d="M16.6,22.2c-0.3,0-0.6-0.1-0.9-0.3L10,18.7c-0.9-0.5-1.2-1.6-0.7-2.5
		c0.5-0.9,1.6-1.2,2.5-0.7l5.7,3.3c0.9,0.5,1.2,1.6,0.7,2.5C17.9,21.9,17.3,22.2,16.6,22.2"/>
	<linearGradient id="SVGID_7_" gradientUnits="userSpaceOnUse" x1="-577.0453" y1="-154.7369" x2="1022.1146" y2="292.3078">
		<stop  offset="0" style="stop-color:#00B0DA"/>
		<stop  offset="1" style="stop-color:#00A6A0"/>
	</linearGradient>
	<path display="inline" fill="url(#SVGID_7_)" d="M40.6,22.2c-0.6,0-1.3-0.3-1.6-0.9c-0.5-0.9-0.2-2,0.7-2.5l5.7-3.3
		c0.9-0.5,2-0.2,2.5,0.7c0.5,0.9,0.2,2-0.7,2.5L41.5,22C41.2,22.1,40.9,22.2,40.6,22.2"/>
</g>
<g display="none">
	<linearGradient id="SVGID_8_" gradientUnits="userSpaceOnUse" x1="-898.9231" y1="-233.0266" x2="700.2368" y2="214.0181">
		<stop  offset="0" style="stop-color:#00B0DA"/>
		<stop  offset="1" style="stop-color:#00A6A0"/>
	</linearGradient>
	<path display="inline" fill="url(#SVGID_8_)" d="M44,17.5H32.8v5.2H44c3.8,0,6.8,3.1,6.8,6.8c0,3.8-3.1,6.8-6.8,6.8
		c-1.8,0-3.5-0.7-4.8-1.9l3.1-3.1h-9.8V41l3-3c2.2,2.2,5.2,3.5,8.4,3.5c6.6,0,12-5.4,12-12C56,22.8,50.6,17.5,44,17.5"/>
	<linearGradient id="SVGID_9_" gradientUnits="userSpaceOnUse" x1="-899.2937" y1="-231.7007" x2="699.8662" y2="215.344">
		<stop  offset="0" style="stop-color:#00B0DA"/>
		<stop  offset="1" style="stop-color:#00A6A0"/>
	</linearGradient>
	<path display="inline" fill="url(#SVGID_9_)" d="M6,24.4c0-3.8,3.1-6.8,6.8-6.8c1.8,0,3.5,0.7,4.8,1.9l-3.1,3.1h9.8v-9.8l-3,3
		c-2.2-2.2-5.3-3.5-8.4-3.5c-6.6,0-12,5.4-12,12s5.4,12,12,12H24v-5.2H12.8C9.1,31.2,6,28.2,6,24.4"/>
	<linearGradient id="SVGID_10_" gradientUnits="userSpaceOnUse" x1="-899.1098" y1="-232.3587" x2="700.0501" y2="214.686">
		<stop  offset="0" style="stop-color:#00B0DA"/>
		<stop  offset="1" style="stop-color:#00A6A0"/>
	</linearGradient>
	<polyline display="inline" fill="url(#SVGID_10_)" points="37.9,24.4 31,24.4 31,17.5 25.9,17.5 25.9,24.4 19,24.4 19,29.5 
		25.9,29.5 25.9,36.4 31,36.4 31,29.5 37.9,29.5 37.9,24.4 	"/>
</g>
<g>
	<linearGradient id="SVGID_11_" gradientUnits="userSpaceOnUse" x1="-309.6743" y1="-70.7754" x2="1289.4856" y2="376.2693">
		<stop  offset="0" style="stop-color:#00B0DA"/>
		<stop  offset="1" style="stop-color:#00A6A0"/>
	</linearGradient>
	<rect x="34.5" y="10.6" fill="url(#SVGID_11_)" width="10.1" height="32.6"/>
	<linearGradient id="SVGID_12_" gradientUnits="userSpaceOnUse" x1="-312.603" y1="-60.299" x2="1286.5569" y2="386.7457">
		<stop  offset="0" style="stop-color:#00B0DA"/>
		<stop  offset="1" style="stop-color:#00A6A0"/>
	</linearGradient>
	<rect x="23.3" y="26.9" fill="url(#SVGID_12_)" width="10.1" height="16.3"/>
	<linearGradient id="SVGID_13_" gradientUnits="userSpaceOnUse" x1="-314.4752" y1="-53.602" x2="1284.6848" y2="393.4427">
		<stop  offset="0" style="stop-color:#00B0DA"/>
		<stop  offset="1" style="stop-color:#00A6A0"/>
	</linearGradient>
	<rect x="12" y="35" fill="url(#SVGID_13_)" width="10.1" height="8.2"/>
</g>
<linearGradient id="SVGID_14_" gradientUnits="userSpaceOnUse" x1="-624.3601" y1="-155.4834" x2="974.7998" y2="291.5613">
	<stop  offset="0" style="stop-color:#00B0DA"/>
	<stop  offset="1" style="stop-color:#00A6A0"/>
</linearGradient>
<path display="none" fill="url(#SVGID_14_)" d="M47.4,15.6C46.7,14.4,45,13,41.3,13c-1.6,0-3.4,0.3-5.3,0.8
	c-1.5-5.1-4.1-8.7-7.5-8.7c-3.4,0-5.9,3.6-7.5,8.7c-1.9-0.5-3.7-0.8-5.2-0.8c-3.7,0-5.3,1.4-6.1,2.6c-1.4,2.3-0.6,5.7,2.3,9.4
	c0.5,0.7,1.1,1.3,1.7,2c-3.8,4.1-5.9,8.4-4,11.4c0.7,1.2,2.4,2.6,6.1,2.6c1.6,0,3.4-0.3,5.2-0.8c1.5,5.1,4.1,8.7,7.5,8.7
	c3.4,0,5.9-3.6,7.5-8.7c1.9,0.5,3.7,0.8,5.3,0.8c3.7,0,5.3-1.4,6.1-2.6c1.8-3-0.2-7.3-4-11.4C47.2,22.9,49.2,18.7,47.4,15.6
	 M41.3,15.6c2,0,3.3,0.5,3.9,1.4c1,1.6-0.4,4.8-3.7,8.3C40.4,24.1,39,23,37.6,22c-0.2-2-0.5-3.9-0.9-5.7
	C38.4,15.8,40,15.6,41.3,15.6 M32.1,32.8c-1.2,0.7-2.3,1.3-3.5,1.9c-1.2-0.6-2.3-1.2-3.5-1.9c-1.1-0.7-2.1-1.3-3.1-2
	c-0.1-1.2-0.1-2.4-0.1-3.7c0-1.3,0-2.5,0.1-3.7c1-0.7,2-1.4,3.1-2c1.2-0.7,2.3-1.3,3.5-1.9c1.2,0.6,2.3,1.2,3.5,1.9
	c1.1,0.7,2.1,1.4,3.1,2c0.1,1.2,0.1,2.4,0.1,3.7c0,1.3-0.1,2.5-0.1,3.7C34.2,31.4,33.2,32.1,32.1,32.8 M34.8,34.1
	c-0.2,1.1-0.3,2.1-0.5,3.1c-0.9-0.3-1.8-0.7-2.8-1.1c0.6-0.4,1.3-0.7,1.9-1.1C33.9,34.7,34.4,34.4,34.8,34.1 M25.7,36.1
	c-0.9,0.4-1.9,0.7-2.8,1.1c-0.2-1-0.4-2-0.5-3.1c0.5,0.3,0.9,0.6,1.4,0.9C24.4,35.4,25.1,35.7,25.7,36.1 M19.3,28.7
	c-0.7-0.6-1.3-1.1-1.9-1.7c0.6-0.6,1.2-1.1,1.9-1.7c0,0.6,0,1.1,0,1.7C19.3,27.6,19.3,28.2,19.3,28.7 M22.4,20
	c0.2-1.1,0.3-2.1,0.5-3.1c0.9,0.3,1.8,0.7,2.8,1.1c-0.6,0.4-1.3,0.7-1.9,1.1C23.3,19.4,22.8,19.7,22.4,20 M31.5,18
	c0.9-0.4,1.9-0.7,2.8-1.1c0.2,1,0.4,2,0.5,3.1c-0.5-0.3-0.9-0.6-1.4-0.9C32.8,18.7,32.1,18.4,31.5,18 M37.8,25.4
	c0.7,0.6,1.3,1.1,1.9,1.7c-0.6,0.6-1.2,1.1-1.9,1.7c0-0.6,0-1.1,0-1.7C37.9,26.5,37.9,25.9,37.8,25.4 M28.6,7.6c1.8,0,3.7,2.6,5,6.9
	c-1.6,0.5-3.3,1.2-5,2c-1.7-0.8-3.4-1.5-5-2C24.9,10.2,26.8,7.6,28.6,7.6 M12,16.9c0.5-0.9,1.9-1.4,3.9-1.4c1.3,0,2.9,0.2,4.6,0.7
	c-0.4,1.8-0.7,3.7-0.9,5.7c-1.4,1-2.7,2.1-3.9,3.3c-0.5-0.6-1-1.2-1.5-1.8C12,20.7,11.2,18.2,12,16.9 M15.9,38.5
	c-2,0-3.3-0.5-3.9-1.4c-1-1.6,0.4-4.8,3.6-8.3c1.2,1.1,2.5,2.2,3.9,3.3c0.2,2,0.5,3.9,0.9,5.7C18.8,38.3,17.2,38.5,15.9,38.5
	 M28.6,46.5c-1.8,0-3.7-2.6-5-6.9c1.6-0.5,3.3-1.2,5-2c1.7,0.8,3.4,1.5,5,2C32.3,43.9,30.4,46.5,28.6,46.5 M45.2,37.2
	c-0.5,0.9-1.9,1.4-3.9,1.4c-1.3,0-2.9-0.3-4.6-0.7c0.4-1.8,0.7-3.7,0.9-5.7c1.4-1,2.7-2.1,3.9-3.3C44.8,32.4,46.2,35.6,45.2,37.2
	 M28.6,24.2c1.6,0,2.8,1.3,2.8,2.8c0,1.6-1.3,2.8-2.8,2.8c-1.6,0-2.8-1.3-2.8-2.8C25.8,25.5,27,24.2,28.6,24.2"/>
</svg>
