<?xml version="1.0" encoding="utf-8"?>
<!-- Generator: Adobe Illustrator 18.1.0, SVG Export Plug-In . SVG Version: 6.00 Build 0)  -->
<svg version="1.1" id="Layer_1" xmlns="http://www.w3.org/2000/svg" xmlns:xlink="http://www.w3.org/1999/xlink" x="0px" y="0px"
	 viewBox="0 0 51 45.5" enable-background="new 0 0 51 45.5" xml:space="preserve">
<linearGradient id="SVGID_1_" gradientUnits="userSpaceOnUse" x1="18.5376" y1="22.549" x2="845.9377" y2="43.0067">
	<stop  offset="0" style="stop-color:#00B0DA"/>
	<stop  offset="1" style="stop-color:#00A6A0"/>
</linearGradient>
<path display="none" fill="url(#SVGID_1_)" d="M45.3,23.6c0.5,0,0.8-0.4,0.8-0.8c0-0.5-0.4-0.9-0.8-0.9h-8.1v-4.5h8.1
	c0.5,0,0.8-0.4,0.8-0.9c0-0.5-0.4-0.9-0.8-0.9h-8.1v-4.5h-4.5V3.2c0-0.5-0.4-0.9-0.8-0.9c-0.5,0-0.9,0.4-0.9,0.9v8.1h-4.5V3.2
	c0-0.5-0.4-0.9-0.8-0.9c-0.5,0-0.9,0.4-0.9,0.9v8.1h-4.5V3.2c0-0.5-0.4-0.9-0.9-0.9c-0.5,0-0.8,0.4-0.8,0.9v8.1h-4.5v4.5H6.2
	c-0.5,0-0.9,0.4-0.9,0.9c0,0.5,0.4,0.9,0.9,0.9h8.1v4.5H6.2c-0.5,0-0.9,0.4-0.9,0.9c0,0.5,0.4,0.8,0.9,0.8h8.1V28H6.2
	c-0.5,0-0.9,0.4-0.9,0.9c0,0.5,0.4,0.9,0.9,0.9h8.1v4.5h4.5v8.1c0,0.5,0.4,0.9,0.8,0.9c0.5,0,0.9-0.4,0.9-0.9v-8.1h4.5v8.1
	c0,0.5,0.4,0.9,0.9,0.9c0.5,0,0.8-0.4,0.8-0.9v-8.1H31v8.1c0,0.5,0.4,0.9,0.9,0.9c0.5,0,0.8-0.4,0.8-0.9v-8.1h4.5v-4.5h8.1
	c0.5,0,0.8-0.4,0.8-0.9c0-0.5-0.4-0.9-0.8-0.9h-8.1v-4.5H45.3 M25.7,26.9c-2.3,0-4.2-1.9-4.2-4.2c0-2.3,1.9-4.2,4.2-4.2
	c2.3,0,4.2,1.9,4.2,4.2C29.9,25.1,28.1,26.9,25.7,26.9z"/>
<g>
	<linearGradient id="SVGID_2_" gradientUnits="userSpaceOnUse" x1="-351.711" y1="19.9713" x2="438.9484" y2="39.5205">
		<stop  offset="0" style="stop-color:#00B0DA"/>
		<stop  offset="1" style="stop-color:#00A6A0"/>
	</linearGradient>
	<path fill="url(#SVGID_2_)" d="M17.9,22.1c-2.3-3-3.3-3.9-5.7-3.9h-1.6c-2.8,0-5.1,2.3-5.1,5.1v16.2h10.4V28.4h0.8l5,5.7l3.4-2.9
		L17.9,22.1"/>
	<linearGradient id="SVGID_3_" gradientUnits="userSpaceOnUse" x1="-351.2672" y1="2.022" x2="439.3922" y2="21.5712">
		<stop  offset="0" style="stop-color:#00B0DA"/>
		<stop  offset="1" style="stop-color:#00A6A0"/>
	</linearGradient>
	<path fill="url(#SVGID_3_)" d="M12,16.1c2.8,0,5.1-2.3,5.1-5.1c0-2.8-2.3-5.1-5.1-5.1c-2.8,0-5.1,2.3-5.1,5.1
		C6.9,13.8,9.2,16.1,12,16.1"/>
	<linearGradient id="SVGID_4_" gradientUnits="userSpaceOnUse" x1="-351.693" y1="19.2437" x2="438.9663" y2="38.793">
		<stop  offset="0" style="stop-color:#00B0DA"/>
		<stop  offset="1" style="stop-color:#00A6A0"/>
	</linearGradient>
	<path fill="url(#SVGID_4_)" d="M40.9,18.2h-1.6c-2.4,0-3.4,0.9-5.7,3.9L26.5,31l3.4,2.9l5-5.6h0.8v11.2H46V23.3
		C46,20.5,43.7,18.2,40.9,18.2"/>
	<linearGradient id="SVGID_5_" gradientUnits="userSpaceOnUse" x1="-351.2504" y1="1.3429" x2="439.4089" y2="20.8921">
		<stop  offset="0" style="stop-color:#00B0DA"/>
		<stop  offset="1" style="stop-color:#00A6A0"/>
	</linearGradient>
	<path fill="url(#SVGID_5_)" d="M39.5,16.1c2.8,0,5.1-2.3,5.1-5.1c0-2.8-2.3-5.1-5.1-5.1c-2.8,0-5.1,2.3-5.1,5.1
		C34.4,13.8,36.6,16.1,39.5,16.1"/>
	<linearGradient id="SVGID_6_" gradientUnits="userSpaceOnUse" x1="-351.8493" y1="25.5623" x2="438.8101" y2="45.1116">
		<stop  offset="0" style="stop-color:#00B0DA"/>
		<stop  offset="1" style="stop-color:#00A6A0"/>
	</linearGradient>
	<path fill="url(#SVGID_6_)" d="M27.4,33.5c-0.8-0.7-1.2-1.1-1.6-1c-0.4,0-0.8,0.3-1.6,1c-1.7,1.4-1.6,1.4-0.2,3
		c0.5,0.6,1.2,0.8,1.9,0.7c0.7,0.1,1.4-0.2,1.9-0.7C29,34.9,29,34.9,27.4,33.5"/>
</g>
<g display="none">
	<linearGradient id="SVGID_7_" gradientUnits="userSpaceOnUse" x1="-662.4612" y1="0.2638" x2="65.5388" y2="18.2638">
		<stop  offset="0" style="stop-color:#00B0DA"/>
		<stop  offset="1" style="stop-color:#00A6A0"/>
	</linearGradient>
	<path display="inline" fill="url(#SVGID_7_)" d="M21,17.6v-0.3v-4.2c0-2.1-0.3-3.7-1.1-4.6c-0.7-1-2.1-1.4-4.2-1.5
		c0.8-0.6,1.4-1.1,1.8-1.6c0.4-0.5,0.6-1.2,0.6-1.9c0-0.9-0.3-1.7-0.9-2.4C16.6,0.4,15.8,0,14.9,0c-0.9,0-1.7,0.4-2.3,1.1
		c-0.6,0.7-0.9,1.5-0.9,2.4c0,0.7,0.2,1.4,0.6,1.9c0.4,0.5,1,1.1,1.8,1.6c-2,0-3.4,0.5-4.2,1.5C9,9.4,8.7,11,8.7,13.1v4.2
		c0,1.8,0.1,3.1,0.5,3.8c0.4,0.7,1.2,1.2,2.4,1.4v11.5h6.5V22.8l0-0.3C18.1,20.2,19.4,17.8,21,17.6"/>
	<linearGradient id="SVGID_8_" gradientUnits="userSpaceOnUse" x1="-662.4479" y1="-0.2728" x2="65.5521" y2="17.7272">
		<stop  offset="0" style="stop-color:#00B0DA"/>
		<stop  offset="1" style="stop-color:#00A6A0"/>
	</linearGradient>
	<path display="inline" fill="url(#SVGID_8_)" d="M41.7,8.5c-0.8-1-2.2-1.4-4.2-1.5c0.8-0.6,1.4-1.1,1.8-1.6
		c0.4-0.5,0.6-1.2,0.6-1.9c0-0.9-0.3-1.7-1-2.4C38.3,0.4,37.5,0,36.6,0c-0.9,0-1.7,0.4-2.3,1.1c-0.6,0.7-0.9,1.5-0.9,2.4
		c0,0.7,0.2,1.4,0.6,1.9c0.4,0.5,1,1.1,1.8,1.6c-2,0-3.4,0.5-4.2,1.5c-0.8,1-1.1,2.5-1.1,4.6v4.2l0,0.3c1.6,0.3,2.9,2.6,2.9,4.9
		l0,0.2v11.3h6.5V22.5c1.3-0.2,2.1-0.7,2.5-1.5c0.4-0.7,0.5-2,0.5-3.7v-4.2C42.8,11,42.4,9.4,41.7,8.5"/>
	<linearGradient id="SVGID_9_" gradientUnits="userSpaceOnUse" x1="-662.7383" y1="11.4738" x2="65.2617" y2="29.4738">
		<stop  offset="0" style="stop-color:#00B0DA"/>
		<stop  offset="1" style="stop-color:#00A6A0"/>
	</linearGradient>
	<path display="inline" fill="url(#SVGID_9_)" d="M29,34c1.3-0.2,2.1-0.7,2.4-1.4c0.4-0.7,0.5-2,0.5-3.8v-4.2c0-2.1-0.3-3.7-1.1-4.6
		c-0.8-1-2.1-1.4-4.2-1.5c0.8-0.6,1.4-1.1,1.8-1.6c0.4-0.5,0.6-1.2,0.6-1.9c0-0.9-0.3-1.7-1-2.4c-0.6-0.7-1.4-1.1-2.3-1.1
		c-0.9,0-1.7,0.4-2.3,1.1c-0.6,0.7-0.9,1.5-0.9,2.4c0,0.7,0.2,1.4,0.6,1.9c0.4,0.5,1,1.1,1.8,1.6c-2,0-3.4,0.5-4.2,1.5
		c-0.8,1-1.1,2.5-1.1,4.6v4.2c0,1.8,0.1,3.1,0.5,3.8c0.4,0.7,1.2,1.2,2.4,1.4l-3.3,6.6h4.5l0.9,4.9h2.1l0.9-4.9h4.6L29,34"/>
</g>
</svg>
