<?xml version="1.0" encoding="utf-8"?>
<!-- Generator: Adobe Illustrator 18.1.0, SVG Export Plug-In . SVG Version: 6.00 Build 0)  -->
<svg version="1.1" id="Layer_1" xmlns="http://www.w3.org/2000/svg" xmlns:xlink="http://www.w3.org/1999/xlink" x="0px" y="0px"
	 viewBox="0 0 51.2 44.5" enable-background="new 0 0 51.2 44.5" xml:space="preserve">
<linearGradient id="SVGID_1_" gradientUnits="userSpaceOnUse" x1="3.1967" y1="22.8581" x2="890.2779" y2="22.8581">
	<stop  offset="0" style="stop-color:#8DC043"/>
	<stop  offset="1" style="stop-color:#23AFE6"/>
</linearGradient>
<path display="none" opacity="0.8" fill="url(#SVGID_1_)" d="M37.9,31.9l-5.1-5.1c1.2-1.8,1.8-3.8,1.8-6c0-2.9-1.1-5.7-3.2-7.8
	c-2.1-2.1-4.8-3.2-7.8-3.2c-2.9,0-5.7,1.1-7.8,3.2c-4.3,4.3-4.3,11.3,0,15.6c2.1,2.1,4.8,3.2,7.8,3.2c2.1,0,4.2-0.6,6-1.8l5.1,5.1
	c0.4,0.4,1,0.7,1.6,0.7c0.6,0,1.2-0.2,1.6-0.7c0.4-0.4,0.7-1,0.7-1.6C38.6,32.9,38.4,32.4,37.9,31.9 M27,26.9
	c-0.1,0.1-0.2,0.1-0.4,0.2l-0.1,0c-0.2,0.1-0.4,0.2-0.6,0.3l-0.2,0.1c-0.1,0-0.2,0.1-0.3,0.1c-0.1,0-0.2,0.1-0.3,0.1l-0.3,0.1
	c-0.2,0-0.3,0.1-0.5,0.1l-0.2,0c-0.2,0-0.4,0-0.6,0c-1.9,0-3.6-0.7-4.9-2c-1.3-1.3-2-3-2-4.9c0-1.8,0.7-3.6,2-4.9c1.3-1.3,3-2,4.9-2
	s3.6,0.7,4.9,2c1.3,1.3,2,3,2,4.9c0,0.2,0,0.4,0,0.6l0,0.1l0,0.1c0,0.2,0,0.3-0.1,0.5l0,0.2l0,0.1c0,0.1-0.1,0.2-0.1,0.4
	c0,0.1-0.1,0.2-0.1,0.3l-0.1,0.2c-0.1,0.2-0.2,0.4-0.3,0.6l0,0.1c-0.1,0.1-0.1,0.3-0.2,0.4l-0.1,0.1l0,0c-0.3,0.5-0.7,1-1.1,1.4
	C28.1,26.2,27.6,26.6,27,26.9"/>
<linearGradient id="SVGID_2_" gradientUnits="userSpaceOnUse" x1="-201.5955" y1="22.8581" x2="685.4857" y2="22.8581">
	<stop  offset="0" style="stop-color:#8DC043"/>
	<stop  offset="1" style="stop-color:#23AFE6"/>
</linearGradient>
<path display="none" opacity="0.8" fill="url(#SVGID_2_)" d="M32.8,20.1c0.7,1.2,1.1,2.7,1.1,4.2c0,4.6-3.7,8.4-8.4,8.4
	c-4.6,0-8.4-3.7-8.4-8.4c0-4.6,3.7-8.4,8.4-8.4v0v2.8l7.5-4.3L25.6,10v2.8c-6.3,0-11.5,5.1-11.5,11.5c0,6.3,5.1,11.5,11.5,11.5
	c6.3,0,11.5-5.1,11.5-11.5c0-2.1-0.6-4.1-1.5-5.8L32.8,20.1"/>
<linearGradient id="SVGID_3_" gradientUnits="userSpaceOnUse" x1="-405.8179" y1="22.8581" x2="481.2633" y2="22.8581">
	<stop  offset="0" style="stop-color:#8DC043"/>
	<stop  offset="1" style="stop-color:#23AFE6"/>
</linearGradient>
<path display="none" opacity="0.8" fill="url(#SVGID_3_)" d="M38.3,9c-2.4,0-4.4,2-4.4,4.4c0,2.2,1.6,3.9,3.6,4.3v4.4H26.4v-4.4
	c2-0.4,3.6-2.2,3.6-4.3c0-2.4-2-4.4-4.4-4.4c-2.4,0-4.4,2-4.4,4.4c0,2.1,1.5,3.9,3.6,4.3v4.4H13.6v-4.4c2.1-0.3,3.7-2.1,3.7-4.3
	c0-2.4-2-4.4-4.4-4.4c-2.4,0-4.4,2-4.4,4.4c0,2.1,1.5,3.9,3.5,4.3v10.4c-2,0.4-3.5,2.2-3.5,4.3c0,2.4,2,4.4,4.4,4.4
	c2.4,0,4.4-2,4.4-4.4c0-2.2-1.6-4-3.7-4.3v-4.3h11.2v4.3c-2,0.4-3.6,2.2-3.6,4.3c0,2.4,2,4.4,4.4,4.4c2.4,0,4.4-2,4.4-4.4
	c0-2.1-1.5-3.9-3.6-4.3v-4.3h12.8v-6.1c2-0.4,3.5-2.2,3.5-4.3C42.7,11,40.8,9,38.3,9 M15,32.3c0,1.2-1,2.1-2.1,2.1
	c-1.2,0-2.1-1-2.1-2.1c0-1.2,1-2.1,2.1-2.1C14,30.2,15,31.2,15,32.3 M12.9,15.5c-1.2,0-2.1-1-2.1-2.1c0-1.2,1-2.1,2.1-2.1
	c1.2,0,2.1,1,2.1,2.1C15,14.5,14,15.5,12.9,15.5 M27.7,32.3c0,1.2-1,2.1-2.1,2.1s-2.1-1-2.1-2.1c0-1.2,1-2.1,2.1-2.1
	S27.7,31.2,27.7,32.3 M25.6,15.5c-1.2,0-2.1-1-2.1-2.1c0-1.2,1-2.1,2.1-2.1s2.1,1,2.1,2.1C27.7,14.5,26.7,15.5,25.6,15.5 M38.3,15.5
	c-1.2,0-2.1-1-2.1-2.1c0-1.2,1-2.1,2.1-2.1s2.1,1,2.1,2.1C40.5,14.5,39.5,15.5,38.3,15.5"/>
<linearGradient id="SVGID_4_" gradientUnits="userSpaceOnUse" x1="-610.9562" y1="22.8581" x2="276.1249" y2="22.8581">
	<stop  offset="0" style="stop-color:#8DC043"/>
	<stop  offset="1" style="stop-color:#23AFE6"/>
</linearGradient>
<path display="none" opacity="0.8" fill="url(#SVGID_4_)" d="M38.9,28v-8c1.1-0.3,1.9-1.2,1.9-2.4c0-1.4-1.1-2.5-2.5-2.5
	c-0.6,0-1.2,0.2-1.7,0.7l-8.7-5.9c0.1-0.3,0.2-0.6,0.2-0.9c0-1.4-1.1-2.5-2.5-2.5c-1.4,0-2.5,1.1-2.5,2.5c0,0.3,0.1,0.6,0.2,0.9
	l-8.7,5.9c-0.4-0.4-1-0.7-1.7-0.7c-1.4,0-2.5,1.1-2.5,2.5c0,1.2,0.8,2.2,1.9,2.4v8c-1.1,0.3-1.9,1.2-1.9,2.4c0,1.4,1.1,2.5,2.5,2.5
	c0.8,0,1.4-0.4,1.9-0.9l8.4,4.2c0,0.2-0.1,0.4-0.1,0.6c0,1.4,1.1,2.5,2.5,2.5c1.4,0,2.5-1.1,2.5-2.5c0-0.2,0-0.4-0.1-0.6l8.4-4.2
	c0.5,0.5,1.1,0.9,1.9,0.9c1.4,0,2.5-1.1,2.5-2.5C40.8,29.2,40,28.3,38.9,28 M37.6,28L35,23.6l2.5-3.7c0.1,0,0.2,0.1,0.3,0.1v8
	L37.6,28 M36.5,19.2l-2.2,3.3l-1.3-2.1l3.2-1.3L36.5,19.2 M35.8,17.9l-3.4,1.4l-5-8.5l8.5,5.8c-0.1,0.3-0.2,0.6-0.2,0.9
	C35.8,17.7,35.8,17.8,35.8,17.9 M25,11.3V20c-0.8,0.2-1.4,0.6-1.8,1.2l-3.4-1.4l5-8.6L25,11.3 M26.2,20v-8.7l0.2-0.1l5,8.6L28,21.2
	C27.6,20.6,26.9,20.2,26.2,20 M18.7,19.4l-3.4-1.4c0-0.1,0-0.3,0-0.4c0-0.3-0.1-0.6-0.2-0.9l8.5-5.8L18.7,19.4z M14.9,19l3.2,1.3
	l-1.3,2.1l-2.2-3.3L14.9,19 M13.8,19.9l2.5,3.7L13.6,28l-0.1,0v-8C13.6,19.9,13.7,19.9,13.8,19.9 M14.6,28.6l2.3-3.9l1.3,1.9
	L14.6,28.6L14.6,28.6 M17.6,23.6l1.6-2.8l3.5,1.5c0,0.2-0.1,0.4-0.1,0.6c0,0.3,0.1,0.7,0.2,1L19.2,26L17.6,23.6z M23.5,24.8
	c0.4,0.4,0.9,0.8,1.6,0.9v8.7l-0.2,0.1l-5-7.5L23.5,24.8z M26.4,34.5l-0.2-0.1v-8.7c0.6-0.1,1.2-0.5,1.6-0.9l3.6,2.2L26.4,34.5z
	 M28.3,23.8c0.1-0.3,0.2-0.6,0.2-1c0-0.2,0-0.4-0.1-0.6l3.5-1.5l1.6,2.8L32,26L28.3,23.8z M34.3,24.7l2.3,3.9l-0.1,0.1L33,26.6
	L34.3,24.7z M15.3,31c0-0.2,0.1-0.4,0.1-0.6c0-0.3,0-0.5-0.1-0.7l3.5-2.1l5,7.5l-0.1,0.1L15.3,31z M27.5,35.2l-0.1-0.1l5-7.5
	l3.5,2.1c-0.1,0.2-0.1,0.5-0.1,0.7c0,0.2,0,0.4,0.1,0.6L27.5,35.2z"/>
<g opacity="0.8">
	<linearGradient id="SVGID_5_" gradientUnits="userSpaceOnUse" x1="-817.8271" y1="22.8956" x2="69.2541" y2="22.8956">
		<stop  offset="0" style="stop-color:#8DC043"/>
		<stop  offset="1" style="stop-color:#23AFE6"/>
	</linearGradient>
	<path fill="url(#SVGID_5_)" d="M39.6,24.2c0.7,0,1.3-0.6,1.3-1.3c0-0.7-0.6-1.3-1.3-1.3c-0.7,0-1.3,0.6-1.3,1.3
		C38.3,23.6,38.9,24.2,39.6,24.2"/>
	<linearGradient id="SVGID_6_" gradientUnits="userSpaceOnUse" x1="-817.8271" y1="22.8963" x2="69.2541" y2="22.8963">
		<stop  offset="0" style="stop-color:#8DC043"/>
		<stop  offset="1" style="stop-color:#23AFE6"/>
	</linearGradient>
	<path fill="url(#SVGID_6_)" d="M32.9,22.3v1.2l1.7,0.4c0.1,0.7,0.4,1.3,0.8,1.9l-0.9,1.5l0.8,0.8l1.5-0.9c0.6,0.4,1.2,0.6,1.9,0.8
		l0.4,1.7h1.2l0.4-1.7c0.7-0.1,1.3-0.4,1.9-0.8l1.5,0.9l0.8-0.8l-0.9-1.5c0.4-0.6,0.7-1.2,0.8-1.9l1.7-0.4v-1.2l-1.7-0.4
		c-0.1-0.7-0.4-1.3-0.8-1.9l0.9-1.5l-0.8-0.8l-1.5,0.9c-0.6-0.4-1.2-0.6-1.9-0.8l-0.4-1.7H39l-0.4,1.7c-0.7,0.1-1.3,0.4-1.9,0.8
		l-1.5-0.9l-0.8,0.8l0.9,1.5c-0.4,0.6-0.7,1.2-0.8,1.9L32.9,22.3 M39.6,19c2.1,0,3.9,1.7,3.9,3.9c0,2.1-1.7,3.8-3.9,3.8
		c-2.1,0-3.8-1.7-3.8-3.8C35.8,20.8,37.5,19,39.6,19z"/>
	<linearGradient id="SVGID_7_" gradientUnits="userSpaceOnUse" x1="-817.8271" y1="22.8581" x2="69.2541" y2="22.8581">
		<stop  offset="0" style="stop-color:#8DC043"/>
		<stop  offset="1" style="stop-color:#23AFE6"/>
	</linearGradient>
	<path fill="url(#SVGID_7_)" d="M39.7,11.4c-3.1,0-6,1.2-8.1,3.4c-0.9,0.9-12.5,13-13.8,14.3c-1.7,1.7-3.9,2.6-6.3,2.6
		c-4.9,0-8.8-4-8.8-8.8c0-4.9,4-8.8,8.8-8.8c2.4,0,4.6,0.9,6.3,2.6c1,1,3.1,3.2,4.7,4.9l1.8-1.9c-1.6-1.7-3.7-3.8-4.7-4.9
		c-2.2-2.2-5.1-3.4-8.1-3.4C5.2,11.4,0,16.5,0,22.9c0,6.3,5.2,11.5,11.5,11.5c3.1,0,6-1.2,8.2-3.4c0.8-0.9,12.6-13.2,13.8-14.3
		c1.7-1.7,3.9-2.6,6.3-2.6c4.9,0,8.8,4,8.8,8.8c0,4.9-4,8.8-8.8,8.8c-2.4,0-4.6-0.9-6.3-2.6c-1-1-3.1-3.2-4.7-4.9l-1.8,1.9
		c1.6,1.7,3.7,3.8,4.7,4.9c2.2,2.2,5.1,3.4,8.2,3.4c6.3,0,11.5-5.2,11.5-11.5C51.2,16.5,46.1,11.4,39.7,11.4"/>
	<linearGradient id="SVGID_8_" gradientUnits="userSpaceOnUse" x1="-817.8271" y1="27.8513" x2="69.2541" y2="27.8513">
		<stop  offset="0" style="stop-color:#8DC043"/>
		<stop  offset="1" style="stop-color:#23AFE6"/>
	</linearGradient>
	<path fill="url(#SVGID_8_)" d="M10.6,26.2l-0.4,0.4c-0.1,0.1-0.1,0.2,0,0.3l2.6,2.6c0.4-0.1,0.8-0.2,1.2-0.3l-3.1-3.1
		C10.8,26.1,10.7,26.1,10.6,26.2"/>
	<linearGradient id="SVGID_9_" gradientUnits="userSpaceOnUse" x1="-817.8271" y1="22.8581" x2="69.2541" y2="22.8581">
		<stop  offset="0" style="stop-color:#8DC043"/>
		<stop  offset="1" style="stop-color:#23AFE6"/>
	</linearGradient>
	<path fill="url(#SVGID_9_)" d="M18.5,22.9c0-0.3,0-0.5,0-0.8l-1.7-1.7c-0.2-0.2-0.2-0.6,0-0.8l0.4-0.4c0,0,0.1-0.1,0.1-0.1
		c-0.5-0.7-1.2-1.4-1.9-1.9c0,0,0,0.1-0.1,0.1l-0.4,0.4c-0.2,0.2-0.6,0.2-0.8,0l-1.6-1.6c-0.3,0-0.5,0-0.8,0c-0.3,0-0.5,0-0.8,0
		l2.4,2.4c0.2,0.2,0.2,0.6,0,0.8l-0.4,0.4c-0.2,0.2-0.6,0.2-0.8,0l-3.1-3.1c-0.3,0.2-0.7,0.3-1,0.5l1.2,1.2c0.2-0.1,0.5-0.1,0.7,0.1
		c0.2,0.2,0.2,0.6,0,0.8c-0.2,0.2-0.6,0.2-0.8,0c-0.2-0.2-0.2-0.4-0.1-0.7l-1.3-1.3c-0.6,0.4-1.1,0.9-1.5,1.5l1.3,1.3
		C7.6,20,7.9,20,8,20.2c0.2,0.2,0.2,0.6,0,0.8c-0.2,0.2-0.6,0.2-0.8,0C7,20.9,7,20.6,7.1,20.4l-1.2-1.2c-0.2,0.3-0.4,0.6-0.5,1
		l3.1,3.1c0.2,0.2,0.2,0.6,0,0.8L8,24.5c-0.2,0.2-0.6,0.2-0.8,0l-2.4-2.4c0,0.2,0,0.5,0,0.7c0,0.3,0,0.6,0.1,0.8l1.6,1.6
		c0.2,0.2,0.2,0.6,0,0.8L6,26.6c0,0-0.1,0-0.1,0.1c0.5,0.7,1.1,1.4,1.9,1.9c0,0,0-0.1,0.1-0.1L8.3,28c0.2-0.2,0.6-0.2,0.8,0l1.7,1.7
		c0.3,0,0.6,0.1,0.8,0.1c0.2,0,0.5,0,0.7,0l-2.4-2.5c-0.2-0.2-0.2-0.6,0-0.8l0.4-0.4c0.2-0.2,0.6-0.2,0.8,0l3.2,3.2
		c0.3-0.2,0.7-0.3,1-0.5L14,27.3c-0.2,0.1-0.5,0.1-0.7-0.1c-0.2-0.2-0.2-0.6,0-0.8c0.2-0.2,0.6-0.2,0.8,0c0.2,0.2,0.2,0.4,0.1,0.7
		l1.3,1.3c0.6-0.4,1.1-0.9,1.5-1.5l-1.3-1.3c-0.2,0.1-0.5,0.1-0.7-0.1c-0.2-0.2-0.2-0.6,0-0.8c0.2-0.2,0.6-0.2,0.8,0
		c0.2,0.2,0.2,0.4,0.1,0.7l1.3,1.3c0.2-0.3,0.4-0.6,0.5-1l-3.2-3.2c-0.2-0.2-0.2-0.6,0-0.8l0.4-0.4c0.2-0.2,0.6-0.2,0.8,0l2.5,2.5
		C18.4,23.4,18.5,23.1,18.5,22.9 M13.7,23.3L12,25c-0.1,0.1-0.3,0.1-0.4,0l-2.2-2.2c-0.1-0.1-0.1-0.3,0-0.4l1.6-1.6
		c0.1-0.1,0.3-0.1,0.4,0l2.2,2.2C13.8,23,13.8,23.2,13.7,23.3z"/>
	<linearGradient id="SVGID_10_" gradientUnits="userSpaceOnUse" x1="-817.8271" y1="28.8413" x2="69.2541" y2="28.8413">
		<stop  offset="0" style="stop-color:#8DC043"/>
		<stop  offset="1" style="stop-color:#23AFE6"/>
	</linearGradient>
	<path fill="url(#SVGID_10_)" d="M8.6,28.2l-0.4,0.4c0,0,0,0,0,0c0.6,0.4,1.3,0.7,2.1,0.8l-1.3-1.3C8.8,28.1,8.6,28.1,8.6,28.2"/>
	<linearGradient id="SVGID_11_" gradientUnits="userSpaceOnUse" x1="-817.8271" y1="23.2901" x2="69.2541" y2="23.2901">
		<stop  offset="0" style="stop-color:#8DC043"/>
		<stop  offset="1" style="stop-color:#23AFE6"/>
	</linearGradient>
	<path fill="url(#SVGID_11_)" d="M15.4,21.4l-0.4,0.4c-0.1,0.1-0.1,0.2,0,0.3l3.1,3.1c0.1-0.4,0.3-0.8,0.3-1.2l-2.6-2.7
		C15.6,21.3,15.5,21.3,15.4,21.4"/>
	<linearGradient id="SVGID_12_" gradientUnits="userSpaceOnUse" x1="-817.8271" y1="22.4215" x2="69.2541" y2="22.4215">
		<stop  offset="0" style="stop-color:#8DC043"/>
		<stop  offset="1" style="stop-color:#23AFE6"/>
	</linearGradient>
	<path fill="url(#SVGID_12_)" d="M7.8,24.3l0.4-0.4c0.1-0.1,0.1-0.2,0-0.3l-3-3c-0.1,0.4-0.2,0.8-0.3,1.2l2.6,2.6
		C7.6,24.4,7.7,24.4,7.8,24.3"/>
	<linearGradient id="SVGID_13_" gradientUnits="userSpaceOnUse" x1="-817.8271" y1="16.842" x2="69.2541" y2="16.842">
		<stop  offset="0" style="stop-color:#8DC043"/>
		<stop  offset="1" style="stop-color:#23AFE6"/>
	</linearGradient>
	<path fill="url(#SVGID_13_)" d="M14.6,17.4L15,17c0,0,0,0,0,0c-0.6-0.4-1.3-0.6-2.1-0.8l1.3,1.3C14.4,17.5,14.5,17.5,14.6,17.4"/>
	<linearGradient id="SVGID_14_" gradientUnits="userSpaceOnUse" x1="-817.8271" y1="20.4116" x2="69.2541" y2="20.4116">
		<stop  offset="0" style="stop-color:#8DC043"/>
		<stop  offset="1" style="stop-color:#23AFE6"/>
	</linearGradient>
	<path fill="url(#SVGID_14_)" d="M17,20.1l1.4,1.4c-0.2-0.8-0.5-1.5-0.8-2.1c0,0,0,0-0.1,0L17,19.8C16.9,19.9,16.9,20,17,20.1"/>
	<linearGradient id="SVGID_15_" gradientUnits="userSpaceOnUse" x1="-817.8271" y1="25.3046" x2="69.2541" y2="25.3046">
		<stop  offset="0" style="stop-color:#8DC043"/>
		<stop  offset="1" style="stop-color:#23AFE6"/>
	</linearGradient>
	<path fill="url(#SVGID_15_)" d="M6.2,25.5L5,24.3c0.2,0.7,0.4,1.4,0.8,2c0,0,0,0,0,0l0.4-0.4C6.3,25.8,6.3,25.6,6.2,25.5"/>
	<linearGradient id="SVGID_16_" gradientUnits="userSpaceOnUse" x1="-817.8271" y1="17.8445" x2="69.2541" y2="17.8445">
		<stop  offset="0" style="stop-color:#8DC043"/>
		<stop  offset="1" style="stop-color:#23AFE6"/>
	</linearGradient>
	<path fill="url(#SVGID_16_)" d="M12.6,19.5L13,19c0.1-0.1,0.1-0.2,0-0.3l-2.6-2.6c-0.4,0.1-0.8,0.2-1.2,0.3l3,3
		C12.3,19.6,12.5,19.6,12.6,19.5"/>
</g>
</svg>
