<?xml version="1.0" encoding="utf-8"?>
<!-- Generator: Adobe Illustrator 18.1.0, SVG Export Plug-In . SVG Version: 6.00 Build 0)  -->
<svg version="1.1" id="Layer_1" xmlns="http://www.w3.org/2000/svg" xmlns:xlink="http://www.w3.org/1999/xlink" x="0px" y="0px"
	 viewBox="0 0 49.1 45.8" enable-background="new 0 0 49.1 45.8" xml:space="preserve">
<g display="none">
	<linearGradient id="SVGID_1_" gradientUnits="userSpaceOnUse" x1="-18.2718" y1="0.5883" x2="761.6891" y2="404.0681">
		<stop  offset="0" style="stop-color:#8DC043"/>
		<stop  offset="0.8188" style="stop-color:#00A6A0"/>
	</linearGradient>
	<path display="inline" fill="url(#SVGID_1_)" d="M19.2,27.9c0,3.1,1.9,4.9,4.4,5.4v-8.6c-0.3-0.1-0.8-0.2-1.3-0.4
		c-4.1-1.1-8.2-2.7-8.2-8.2c0-5.7,4.6-8.5,9.6-8.8V4.2h2.4v3.2c4.9,0.5,8.9,3.1,9.3,8.8h-5.9c0-2.2-1.6-4-3.4-4v7.3
		c0.7,0.2,1.3,0.3,2.1,0.5c8.1,2.2,8.2,6.8,8.2,9.6c0,2.3-2.1,8.1-10.3,8.6v3.5h-2.4v-3.5c-6.1-0.5-9.6-3.8-10.3-10.3H19.2
		 M23.7,12.1c-1.9,0-3.7,1.1-3.7,3.4c0,1.8,1.1,2.7,3.7,3.3V12.1z M26.1,33.3c2-0.2,4.4-1.4,4.4-4c0-2.1-1.2-3-4.4-3.9V33.3z"/>
</g>
<g display="none">
	<linearGradient id="SVGID_2_" gradientUnits="userSpaceOnUse" x1="579.2714" y1="-210.8277" x2="-322.1836" y2="177.6529">
		<stop  offset="0" style="stop-color:#F089AE"/>
		<stop  offset="1" style="stop-color:#FFD750"/>
	</linearGradient>
	<path display="inline" fill="url(#SVGID_2_)" d="M34.1,19.3l0.5,4.6c1.5,0.6,2.8,1.3,3.8,2.2l0.2,0c3,0,3.9-0.7,3.9-1l0.7-5.8
		C41.9,19.8,40,20,38.7,20C37.3,20,35.4,19.8,34.1,19.3z"/>
	<linearGradient id="SVGID_3_" gradientUnits="userSpaceOnUse" x1="579.2871" y1="-210.7912" x2="-322.1678" y2="177.6894">
		<stop  offset="0" style="stop-color:#F089AE"/>
		<stop  offset="1" style="stop-color:#FFD750"/>
	</linearGradient>
	<path display="inline" fill="url(#SVGID_3_)" d="M22.4,27.1c-6,0-9.2,1.5-9.2,2.1c0,0.6,3.2,2.1,9.2,2.1c6,0,9.2-1.5,9.2-2.1
		C31.6,28.6,28.3,27.1,22.4,27.1z"/>
	<linearGradient id="SVGID_4_" gradientUnits="userSpaceOnUse" x1="578.3684" y1="-212.1713" x2="-322.6227" y2="176.1094">
		<stop  offset="0" style="stop-color:#F089AE"/>
		<stop  offset="1" style="stop-color:#FFD750"/>
	</linearGradient>
	<path display="inline" fill="url(#SVGID_4_)" d="M45.4,11.6c0-1.8-3.5-2.6-6.7-2.6c-3.2,0-6.3,0.8-6.3,2.6l0.5,0.1v0l0.3,6.1
		l0.4,5.6c-3.2-1-7.3-1.6-11.2-1.6c-8.7,0-17.9,2.6-17.9,7.5c0,4.9,9.2,7.5,17.8,7.5c8.7,0,17.8-2.6,17.8-7.5c0-0.7-0.2-1.4-0.6-2
		c2.7-0.1,4.3-0.5,4.3-1.7l0.8-6.6h0l0.7-6.8l0-0.3L45.4,11.6z M22.4,32.8c-5.2,0-10.7-1.1-10.7-3.6c0-2.5,5.5-3.6,10.7-3.6
		c5.2,0,10.7,1.1,10.7,3.6C33.1,31.7,27.5,32.8,22.4,32.8z M42.5,25.1c0,0.3-0.9,1-3.9,1l-0.2,0c-0.9-0.9-2.2-1.6-3.8-2.2l-0.5-4.6
		c1.3,0.5,3.2,0.7,4.5,0.7c1.3,0,3.2-0.2,4.5-0.7L42.5,25.1z M43.6,16.3c-1.3-0.7-3.4-0.9-4.9-0.9c-1.5,0-3.6,0.2-4.9,0.9l-0.3-3
		c1.3,0.6,3.3,0.9,5.2,0.9c1.9,0,4-0.3,5.3-0.9L43.6,16.3z M38.6,12.9c-3.6,0-5.5-1-5.5-1.4c0-0.4,1.9-1.4,5.5-1.4
		c3.6,0,5.5,1,5.5,1.4C44.1,11.9,42.2,12.9,38.6,12.9z"/>
</g>
<g display="none">
	<linearGradient id="SVGID_5_" gradientUnits="userSpaceOnUse" x1="-570.8907" y1="18.9279" x2="377.9265" y2="18.9279">
		<stop  offset="0" style="stop-color:#23AFE6"/>
		<stop  offset="1" style="stop-color:#90368C"/>
	</linearGradient>
	<path display="inline" fill="url(#SVGID_5_)" d="M15.7,31.4c-4.7,0-4.6-2.8-4.6-2.8v-0.2c0-2.8-2.8-2.8-2.8-2.8H6.7
		c-2.8,0-2.8-2.8-2.8-2.8V9.2c0-2.8,2.8-2.8,2.8-2.8h20.5C30,6.4,30,9.2,30,9.2v5.1h-7.4c-2.8,0-2.8,2.8-2.8,2.8v8.4h-1.3
		c-2.8,0-2.8,2.8-2.8,2.8L15.7,31.4"/>
	<linearGradient id="SVGID_6_" gradientUnits="userSpaceOnUse" x1="-570.8907" y1="26.88" x2="377.9265" y2="26.88">
		<stop  offset="0" style="stop-color:#23AFE6"/>
		<stop  offset="1" style="stop-color:#90368C"/>
	</linearGradient>
	<path display="inline" fill="url(#SVGID_6_)" d="M34.1,39.4l0-3c0,0,0-2.8-2.8-2.8h-8.7c0,0-2.8,0-2.8-2.8v-5.1h7.4
		c0,0,2.8,0,2.8-2.8v-8.4h13.1c0,0,2.8,0,2.8,2.8v13.5c0,0,0,2.8-2.8,2.8h-1.5c0,0-2.8,0-2.8,2.8v0.2C38.7,36.6,38.8,39.4,34.1,39.4
		"/>
</g>
<linearGradient id="SVGID_7_" gradientUnits="userSpaceOnUse" x1="148" y1="-30.7223" x2="-753.455" y2="357.7583">
	<stop  offset="0" style="stop-color:#F089AE"/>
	<stop  offset="1" style="stop-color:#FFD750"/>
</linearGradient>
<path display="none" fill="url(#SVGID_7_)" d="M42.8,30.5H21.1c-1.1,0-2.2-0.5-3-1.2l24.7-1.5l1.1-12.6l-29.3-1.6
	C13.8,11,12,9.1,10.1,9.1H6.9c-0.6,0-1,0.5-1,1c0,0.6,0.5,1,1,1h3.2c1.1,0,2.5,1.8,2.8,4.2l1.4,11.2c0.3,2.3,1.9,4.4,4,5.3
	c-0.6,0.5-1,1.2-1,2.1c0,1.5,1.2,2.7,2.7,2.7c1.5,0,2.7-1.2,2.7-2.7c0-0.5-0.2-1-0.4-1.4h15.3c-0.3,0.4-0.4,0.9-0.4,1.4
	c0,1.5,1.2,2.7,2.7,2.7c1.5,0,2.7-1.2,2.7-2.7c0-0.5-0.2-1-0.4-1.4h0.7c0.6,0,1-0.5,1-1C43.8,31,43.4,30.5,42.8,30.5"/>
<g>
	<linearGradient id="SVGID_8_" gradientUnits="userSpaceOnUse" x1="-64.7122" y1="9.0533" x2="884.105" y2="9.0533">
		<stop  offset="0" style="stop-color:#23AFE6"/>
		<stop  offset="1" style="stop-color:#90368C"/>
	</linearGradient>
	<polyline fill="url(#SVGID_8_)" points="24.9,12.2 32.6,9 25.8,5.9 18,9.1 24.9,12.2 	"/>
	<linearGradient id="SVGID_9_" gradientUnits="userSpaceOnUse" x1="-64.7122" y1="17.8403" x2="884.105" y2="17.8403">
		<stop  offset="0" style="stop-color:#23AFE6"/>
		<stop  offset="1" style="stop-color:#90368C"/>
	</linearGradient>
	<path fill="url(#SVGID_9_)" d="M14.7,25.9v-9.1c0-0.3,0.2-0.5,0.4-0.6l8-3.3l-6.8-3.1l-8.9,3.6v9.2L14.7,25.9"/>
	<linearGradient id="SVGID_10_" gradientUnits="userSpaceOnUse" x1="-64.7122" y1="21.8718" x2="884.105" y2="21.8718">
		<stop  offset="0" style="stop-color:#23AFE6"/>
		<stop  offset="1" style="stop-color:#90368C"/>
	</linearGradient>
	<polyline fill="url(#SVGID_10_)" points="16,17.3 16,26.4 24,30.1 33.1,26.3 33.1,17.4 24.8,13.7 16,17.3 	"/>
	<linearGradient id="SVGID_11_" gradientUnits="userSpaceOnUse" x1="-64.7122" y1="17.7823" x2="884.105" y2="17.7823">
		<stop  offset="0" style="stop-color:#23AFE6"/>
		<stop  offset="1" style="stop-color:#90368C"/>
	</linearGradient>
	<path fill="url(#SVGID_11_)" d="M26.6,12.9l7.5,3.4c0.2,0.1,0.4,0.4,0.4,0.6v8.9l8-3.3v-9.1l-8.1-3.6L26.6,12.9"/>
	<linearGradient id="SVGID_12_" gradientUnits="userSpaceOnUse" x1="-64.7122" y1="29.8733" x2="884.105" y2="29.8733">
		<stop  offset="0" style="stop-color:#23AFE6"/>
		<stop  offset="1" style="stop-color:#90368C"/>
	</linearGradient>
	<polyline fill="url(#SVGID_12_)" points="14.7,27.4 7.4,24.1 7.4,32.4 14.7,35.7 14.7,27.4 	"/>
	<linearGradient id="SVGID_13_" gradientUnits="userSpaceOnUse" x1="-64.7122" y1="29.8048" x2="884.105" y2="29.8048">
		<stop  offset="0" style="stop-color:#23AFE6"/>
		<stop  offset="1" style="stop-color:#90368C"/>
	</linearGradient>
	<polyline fill="url(#SVGID_13_)" points="34.4,27.3 34.4,35.6 42.4,32.4 42.4,24 34.4,27.3 	"/>
	<linearGradient id="SVGID_14_" gradientUnits="userSpaceOnUse" x1="-64.7122" y1="33.8356" x2="884.105" y2="33.8356">
		<stop  offset="0" style="stop-color:#23AFE6"/>
		<stop  offset="1" style="stop-color:#90368C"/>
	</linearGradient>
	<path fill="url(#SVGID_14_)" d="M33.1,36.2v-8.4l-8.9,3.7c-0.1,0-0.1,0-0.2,0c-0.1,0-0.2,0-0.2-0.1L16,27.9v8.3l8,3.6v0L33.1,36.2"
		/>
</g>
<linearGradient id="SVGID_15_" gradientUnits="userSpaceOnUse" x1="-280.8445" y1="-131.4176" x2="499.1165" y2="272.0622">
	<stop  offset="0" style="stop-color:#8DC043"/>
	<stop  offset="0.8188" style="stop-color:#00A6A0"/>
</linearGradient>
<path display="none" fill="url(#SVGID_15_)" d="M38.6,19.1v-7.4h-4.7v2.6l-9-9L5.4,24.9h3.3v15.6h32.5V24.9h3.2L38.6,19.1 M18,31.1
	h-5.2v-6.2H18V31.1z M27.5,31.1h-5.2v-6.2h5.2V31.1z M37,31.1h-5.2v-6.2H37V31.1z"/>
<linearGradient id="SVGID_16_" gradientUnits="userSpaceOnUse" x1="415.8998" y1="-145.599" x2="-485.5551" y2="242.8815">
	<stop  offset="0" style="stop-color:#F089AE"/>
	<stop  offset="1" style="stop-color:#FFD750"/>
</linearGradient>
<polyline display="none" fill="url(#SVGID_16_)" points="29.4,39.9 29.4,27.4 41.9,27.4 41.9,18.4 29.4,18.4 29.4,5.9 20.3,5.9 
	20.3,18.4 7.9,18.4 7.9,27.4 20.3,27.4 20.3,39.9 29.4,39.9 "/>
<g display="none">
	<linearGradient id="SVGID_17_" gradientUnits="userSpaceOnUse" x1="-831.5482" y1="24.8147" x2="117.2691" y2="24.8147">
		<stop  offset="0" style="stop-color:#23AFE6"/>
		<stop  offset="1" style="stop-color:#90368C"/>
	</linearGradient>
	<path display="inline" fill="url(#SVGID_17_)" d="M24.9,20.9c-2.2,0-3.9,1.7-3.9,3.9c0,2.1,1.7,3.9,3.9,3.9c2.1,0,3.9-1.7,3.9-3.9
		C28.8,22.7,27.1,20.9,24.9,20.9"/>
	<linearGradient id="SVGID_18_" gradientUnits="userSpaceOnUse" x1="-831.5482" y1="22.9047" x2="117.2691" y2="22.9047">
		<stop  offset="0" style="stop-color:#23AFE6"/>
		<stop  offset="1" style="stop-color:#90368C"/>
	</linearGradient>
	<path display="inline" fill="url(#SVGID_18_)" d="M24.9,6.5c-9.9,0-18,8.1-18,18c0,5.8,2.9,11.3,7.6,14.7c0.2,0.1,0.4,0.2,0.6,0.2
		c0.3,0,0.7-0.2,0.9-0.5c0.3-0.5,0.2-1.2-0.3-1.5c-4.2-3-6.7-7.8-6.7-12.9c0-8.7,7.1-15.8,15.8-15.8c8.7,0,15.8,7.1,15.8,15.8
		c0,5.1-2.5,9.9-6.6,12.9c-0.5,0.3-0.6,1-0.2,1.5c0.3,0.5,1,0.6,1.5,0.2c4.7-3.4,7.5-8.8,7.5-14.6C42.9,14.5,34.8,6.5,24.9,6.5"/>
	<linearGradient id="SVGID_19_" gradientUnits="userSpaceOnUse" x1="-831.5482" y1="23.3551" x2="117.2691" y2="23.3551">
		<stop  offset="0" style="stop-color:#23AFE6"/>
		<stop  offset="1" style="stop-color:#90368C"/>
	</linearGradient>
	<path display="inline" fill="url(#SVGID_19_)" d="M38.9,24.7c0-7.7-6.3-14-14-14c-7.7,0-14,6.3-14,14c0,4.3,2,8.4,5.4,11.1
		c0.2,0.2,0.4,0.2,0.7,0.2c0.3,0,0.6-0.1,0.9-0.4c0.4-0.5,0.3-1.2-0.2-1.5c-2.9-2.3-4.6-5.7-4.6-9.4c0-6.5,5.3-11.8,11.8-11.8
		c6.5,0,11.8,5.3,11.8,11.8c0,3.6-1.6,7-4.5,9.3c-0.5,0.4-0.6,1.1-0.2,1.5c0.4,0.5,1.1,0.6,1.5,0.2C37,33,38.9,29,38.9,24.7"/>
	<linearGradient id="SVGID_20_" gradientUnits="userSpaceOnUse" x1="-831.5482" y1="23.7797" x2="117.2691" y2="23.7797">
		<stop  offset="0" style="stop-color:#23AFE6"/>
		<stop  offset="1" style="stop-color:#90368C"/>
	</linearGradient>
	<path display="inline" fill="url(#SVGID_20_)" d="M24.9,15.1c-5.5,0-9.9,4.4-9.9,9.9c0,2.7,1.2,5.4,3.2,7.2
		c0.2,0.2,0.5,0.3,0.7,0.3c0.3,0,0.6-0.1,0.8-0.3c0.4-0.4,0.4-1.1-0.1-1.5c-1.6-1.5-2.5-3.5-2.5-5.7c0-4.3,3.5-7.7,7.7-7.7
		s7.7,3.5,7.7,7.7c0,2.1-0.9,4.1-2.4,5.6c-0.4,0.4-0.5,1.1,0,1.5c0.4,0.4,1.1,0.4,1.5,0c2-1.9,3.1-4.4,3.1-7.2
		C34.8,19.5,30.3,15.1,24.9,15.1"/>
</g>
<g display="none">
	<linearGradient id="SVGID_21_" gradientUnits="userSpaceOnUse" x1="906.2814" y1="-349.3994" x2="4.8264" y2="39.0811">
		<stop  offset="0" style="stop-color:#F089AE"/>
		<stop  offset="1" style="stop-color:#FFD750"/>
	</linearGradient>
	<path display="inline" fill="url(#SVGID_21_)" d="M27.1,32.2h-4.3v-2.2c0-1.2,1-2.2,2.2-2.2c1.2,0,2.2,1,2.2,2.2V32.2"/>
	<linearGradient id="SVGID_22_" gradientUnits="userSpaceOnUse" x1="903.545" y1="-355.749" x2="2.0901" y2="32.7316">
		<stop  offset="0" style="stop-color:#F089AE"/>
		<stop  offset="1" style="stop-color:#FFD750"/>
	</linearGradient>
	<path display="inline" fill="url(#SVGID_22_)" d="M13.7,10.7c-0.3,0.2-0.5,0.5-0.7,0.8c-2.4,2.7-4,7.2-4,11.4c0,4.2,1.6,8.7,4,11.4
		c0.2,0.3,0.5,0.5,0.7,0.8h22.4c0.2-0.3,0.5-0.5,0.7-0.8c2.4-2.7,4-7.2,4-11.4c0-4.2-1.6-8.7-4-11.4c-0.2-0.3-0.5-0.5-0.7-0.8H13.7
		 M38.1,40.2H11.7L11,39.6c-0.7-0.6-1.3-1.2-1.9-1.9C6,34.1,3.9,28.3,3.9,22.9c0-5.4,2.1-11.2,5.2-14.8c0.6-0.7,1.2-1.3,1.9-1.9
		l0.7-0.6H38l0.7,0.6c0.6,0.6,1.3,1.2,1.9,1.9c3.2,3.6,5.2,9.4,5.2,14.8c0,5.4-2.1,11.2-5.2,14.8c-0.6,0.7-1.2,1.3-1.9,1.9
		L38.1,40.2"/>
	<linearGradient id="SVGID_23_" gradientUnits="userSpaceOnUse" x1="902.0538" y1="-359.2094" x2="0.5989" y2="29.2712">
		<stop  offset="0" style="stop-color:#F089AE"/>
		<stop  offset="1" style="stop-color:#FFD750"/>
	</linearGradient>
	<path display="inline" fill="url(#SVGID_23_)" d="M19.6,27.2h-2.8c-0.4,0-0.7-0.3-0.7-0.7v-2.8h-2.8c-0.4,0-0.7-0.3-0.7-0.7v-2.8
		c0-0.4,0.3-0.7,0.7-0.7h2.8v-2.8c0-0.4,0.3-0.7,0.7-0.7h2.8c0.4,0,0.7,0.3,0.7,0.7v2.8h2.8c0.4,0,0.7,0.3,0.7,0.7V23
		c0,0.4-0.3,0.7-0.7,0.7h-2.8v2.8C20.3,26.9,20,27.2,19.6,27.2"/>
	<linearGradient id="SVGID_24_" gradientUnits="userSpaceOnUse" x1="904.1383" y1="-354.3723" x2="2.6834" y2="34.1083">
		<stop  offset="0" style="stop-color:#F089AE"/>
		<stop  offset="1" style="stop-color:#FFD750"/>
	</linearGradient>
	<path display="inline" fill="url(#SVGID_24_)" d="M32.9,27.2h-2.8c-0.4,0-0.7-0.3-0.7-0.7v-2.8h-2.8c-0.4,0-0.7-0.3-0.7-0.7v-2.8
		c0-0.4,0.3-0.7,0.7-0.7h2.8v-2.8c0-0.4,0.3-0.7,0.7-0.7h2.8c0.4,0,0.7,0.3,0.7,0.7v2.8h2.8c0.4,0,0.7,0.3,0.7,0.7V23
		c0,0.4-0.3,0.7-0.7,0.7h-2.8v2.8C33.6,26.9,33.3,27.2,32.9,27.2"/>
</g>
<g display="none">
	<linearGradient id="SVGID_25_" gradientUnits="userSpaceOnUse" x1="-315.5875" y1="29.138" x2="633.2297" y2="29.138">
		<stop  offset="0" style="stop-color:#23AFE6"/>
		<stop  offset="1" style="stop-color:#90368C"/>
	</linearGradient>
	<polygon display="inline" fill="url(#SVGID_25_)" points="27.2,28.8 26,28.8 26.5,29.5 	"/>
	<linearGradient id="SVGID_26_" gradientUnits="userSpaceOnUse" x1="-315.5875" y1="27.7825" x2="633.2297" y2="27.7825">
		<stop  offset="0" style="stop-color:#23AFE6"/>
		<stop  offset="1" style="stop-color:#90368C"/>
	</linearGradient>
	<polygon display="inline" fill="url(#SVGID_26_)" points="19.9,27.2 19.4,27.5 19.4,28.4 20.8,28.4 	"/>
	<linearGradient id="SVGID_27_" gradientUnits="userSpaceOnUse" x1="-315.5875" y1="11.4975" x2="633.2297" y2="11.4975">
		<stop  offset="0" style="stop-color:#23AFE6"/>
		<stop  offset="1" style="stop-color:#90368C"/>
	</linearGradient>
	<rect x="19.4" y="6" display="inline" fill="url(#SVGID_27_)" width="11" height="11"/>
	<linearGradient id="SVGID_28_" gradientUnits="userSpaceOnUse" x1="-315.5875" y1="11.4958" x2="633.2297" y2="11.4958">
		<stop  offset="0" style="stop-color:#23AFE6"/>
		<stop  offset="1" style="stop-color:#90368C"/>
	</linearGradient>
	<polygon display="inline" fill="url(#SVGID_28_)" points="30.9,6 30.9,17 39,17 41.9,14.1 41.9,6 	"/>
	<linearGradient id="SVGID_29_" gradientUnits="userSpaceOnUse" x1="-315.5875" y1="11.4975" x2="633.2297" y2="11.4975">
		<stop  offset="0" style="stop-color:#23AFE6"/>
		<stop  offset="1" style="stop-color:#90368C"/>
	</linearGradient>
	<rect x="7.9" y="6" display="inline" fill="url(#SVGID_29_)" width="11" height="11"/>
	<linearGradient id="SVGID_30_" gradientUnits="userSpaceOnUse" x1="-315.5875" y1="21.2549" x2="633.2297" y2="21.2549">
		<stop  offset="0" style="stop-color:#23AFE6"/>
		<stop  offset="1" style="stop-color:#90368C"/>
	</linearGradient>
	<polygon display="inline" fill="url(#SVGID_30_)" points="30.9,17.4 30.9,25.1 38.6,17.4 	"/>
	<linearGradient id="SVGID_31_" gradientUnits="userSpaceOnUse" x1="-315.5875" y1="22.9039" x2="633.2297" y2="22.9039">
		<stop  offset="0" style="stop-color:#23AFE6"/>
		<stop  offset="1" style="stop-color:#90368C"/>
	</linearGradient>
	<polygon display="inline" fill="url(#SVGID_31_)" points="19.4,22.4 20.6,21.5 25.7,28.4 27.6,28.4 30.4,25.6 30.4,17.4 19.4,17.4 
			"/>
	<linearGradient id="SVGID_32_" gradientUnits="userSpaceOnUse" x1="-315.5875" y1="22.4395" x2="633.2297" y2="22.4395">
		<stop  offset="0" style="stop-color:#23AFE6"/>
		<stop  offset="1" style="stop-color:#90368C"/>
	</linearGradient>
	<polygon display="inline" fill="url(#SVGID_32_)" points="18.9,22.9 18.9,17.4 7.9,17.4 7.9,26.2 13.2,27.5 	"/>
	<linearGradient id="SVGID_33_" gradientUnits="userSpaceOnUse" x1="-315.5875" y1="24.0526" x2="633.2297" y2="24.0526">
		<stop  offset="0" style="stop-color:#23AFE6"/>
		<stop  offset="1" style="stop-color:#90368C"/>
	</linearGradient>
	<polygon display="inline" fill="url(#SVGID_33_)" points="41.9,28.4 41.9,19.7 33.2,28.4 	"/>
	<linearGradient id="SVGID_34_" gradientUnits="userSpaceOnUse" x1="-315.5875" y1="34.3102" x2="633.2297" y2="34.3102">
		<stop  offset="0" style="stop-color:#23AFE6"/>
		<stop  offset="1" style="stop-color:#90368C"/>
	</linearGradient>
	<polygon display="inline" fill="url(#SVGID_34_)" points="21.1,28.8 19.4,28.8 19.4,39.8 30.4,39.8 30.4,31.2 26.1,35.5 	"/>
	<linearGradient id="SVGID_35_" gradientUnits="userSpaceOnUse" x1="-315.5875" y1="34.3102" x2="633.2297" y2="34.3102">
		<stop  offset="0" style="stop-color:#23AFE6"/>
		<stop  offset="1" style="stop-color:#90368C"/>
	</linearGradient>
	<polygon display="inline" fill="url(#SVGID_35_)" points="30.9,30.7 30.9,39.8 41.9,39.8 41.9,28.8 32.8,28.8 	"/>
	<linearGradient id="SVGID_36_" gradientUnits="userSpaceOnUse" x1="-315.5875" y1="28.1739" x2="633.2297" y2="28.1739">
		<stop  offset="0" style="stop-color:#23AFE6"/>
		<stop  offset="1" style="stop-color:#90368C"/>
	</linearGradient>
	<polygon display="inline" fill="url(#SVGID_36_)" points="18.9,27.9 18.3,28.4 18.9,28.4 	"/>
	<linearGradient id="SVGID_37_" gradientUnits="userSpaceOnUse" x1="-315.5875" y1="34.3102" x2="633.2297" y2="34.3102">
		<stop  offset="0" style="stop-color:#23AFE6"/>
		<stop  offset="1" style="stop-color:#90368C"/>
	</linearGradient>
	<polygon display="inline" fill="url(#SVGID_37_)" points="14.2,31.8 7.9,30.3 7.9,39.8 18.9,39.8 18.9,28.8 17.8,28.8 	"/>
</g>
<linearGradient id="SVGID_38_" gradientUnits="userSpaceOnUse" x1="-574.5482" y1="22.9047" x2="374.269" y2="22.9047">
	<stop  offset="0" style="stop-color:#23AFE6"/>
	<stop  offset="1" style="stop-color:#90368C"/>
</linearGradient>
<path display="none" fill="url(#SVGID_38_)" d="M24.9,38.3c3.8-1.7,8.6-4,12.3-6c2.1-1.2,3.5-4.2,3.1-7l-1.2-15
	c-4.1,1.6-10.3-0.1-14.2-2.8c-3.9,2.7-10.1,4.4-14.2,2.8l-1.2,15c-0.4,2.8,1.1,5.8,3.2,7C16.3,34.3,21.1,36.6,24.9,38.3L24.9,38.3"
	/>
<linearGradient id="SVGID_39_" gradientUnits="userSpaceOnUse" x1="-750.7839" y1="-374.6216" x2="29.1771" y2="28.8582">
	<stop  offset="0" style="stop-color:#8DC043"/>
	<stop  offset="0.8188" style="stop-color:#00A6A0"/>
</linearGradient>
<path display="none" fill="url(#SVGID_39_)" d="M18.9,43.4c0.7-0.2,1.2-1.1,1.4-1.5c0.2-0.5,3.7-6.7,6.3-11.4H29
	c-0.3-0.3-0.4-1.1-0.4-1.8c0-0.8,0.1-1.5,0.4-1.8h-0.4c0.5-0.8,0.7-1.4,0.7-1.4s9.2,0,9.3,0c2.1,0,8.5-0.5,8.5-2.6l0,0l0,0v0l0,0
	c0-2.1-6.4-2.6-8.5-2.6c-0.1,0-9.3,0-9.3,0s-0.3-0.5-0.7-1.4H29c-0.3-0.3-0.4-1.1-0.4-1.8c0-0.8,0.1-1.5,0.4-1.8h-2.4
	C24,10.7,20.6,4.4,20.3,4c-0.2-0.5-0.8-1.4-1.4-1.5c-0.8-0.2-1.8-0.3-2-0.2c-0.2,0.1-0.2,0.4-0.1,0.6c0.1,0.5,3.6,12.2,3.6,12.2
	l0,5.2c0,0-0.6,0-1.2,0c-3.3,0-6.3,0.6-7.5,0.9c-1.2,0.3-3.4,0.8-3.4,0.8s-2.7-4.5-3.1-5.1c-0.2-0.4-0.5-0.7-0.9-0.7
	c-0.5,0-1.1,0-1.3,0.1c-0.2,0.1-0.4,0.3-0.3,0.6c0,0.2,1.4,5.8,1.4,5.8v0.6c0,0-1.4,5.6-1.4,5.8c0,0.3,0.1,0.5,0.3,0.6
	c0.2,0,0.7,0.1,1.3,0.1c0.4,0,0.6-0.3,0.9-0.7c0.4-0.6,3.1-5.1,3.1-5.1s2.2,0.5,3.4,0.8c1.2,0.3,4.3,0.9,7.5,0.9c0.6,0,1.2,0,1.2,0
	l0,5.2c0,0-3.5,11.8-3.6,12.2c0,0.2-0.1,0.5,0.1,0.6C17.1,43.7,18,43.5,18.9,43.4"/>
</svg>
