<?xml version="1.0" encoding="utf-8"?>
<!-- Generator: Adobe Illustrator 16.0.0, SVG Export Plug-In . SVG Version: 6.00 Build 0)  -->
<!DOCTYPE svg PUBLIC "-//W3C//DTD SVG 1.1//EN" "http://www.w3.org/Graphics/SVG/1.1/DTD/svg11.dtd">
<svg version="1.1" id="Layer_1" xmlns="http://www.w3.org/2000/svg" xmlns:xlink="http://www.w3.org/1999/xlink" x="0px" y="0px"
	 width="42.456px" height="36.336px" viewBox="0 0 42.456 36.336" enable-background="new 0 0 42.456 36.336" xml:space="preserve">
<g>
	<defs>
		<rect id="SVGID_1_" y="0" width="42.456" height="36.336"/>
	</defs>
	<clipPath id="SVGID_2_">
		<use xlink:href="#SVGID_1_"  overflow="visible"/>
	</clipPath>
	<path clip-path="url(#SVGID_2_)" fill="none" stroke="#F389AF" stroke-miterlimit="10" d="M39.002,13.091h0.652H3.456H2.808
		c-1.267,0-2.308,0.868-2.308,1.92c0,1.058,0.336,1.92,0.747,1.92c0.41,0,0.792,1.037,0.844,2.305l0.619,14.299
		c0.057,1.269,1.133,2.301,2.405,2.301h32.233c1.266,0,2.348-1.032,2.406-2.301l0.612-14.299c0.058-1.268,0.439-2.305,0.845-2.305
		c0.409,0,0.745-0.862,0.745-1.92c0-1.052-1.034-1.92-2.302-1.92 M10.168,30.243c-1.018,0-1.839-0.82-1.839-1.843
		c0-1.014,0.821-1.839,1.839-1.839s1.839,0.825,1.839,1.839C12.007,29.422,11.187,30.243,10.168,30.243 M10.168,23.789
		c-1.018,0-1.839-0.826-1.839-1.843s0.821-1.841,1.839-1.841s1.839,0.824,1.839,1.841S11.187,23.789,10.168,23.789 M15.696,30.243
		c-1.017,0-1.844-0.82-1.844-1.843c0-1.014,0.827-1.839,1.844-1.839c1.018,0,1.839,0.825,1.839,1.839
		C17.536,29.422,16.714,30.243,15.696,30.243 M15.696,23.789c-1.017,0-1.844-0.826-1.844-1.843s0.827-1.841,1.844-1.841
		c1.018,0,1.839,0.824,1.839,1.841S16.714,23.789,15.696,23.789 M21.226,30.243c-1.018,0-1.839-0.82-1.839-1.843
		c0-1.014,0.821-1.839,1.839-1.839c1.018,0,1.839,0.825,1.839,1.839C23.064,29.422,22.243,30.243,21.226,30.243 M21.226,23.789
		c-1.018,0-1.839-0.826-1.839-1.843s0.821-1.841,1.839-1.841c1.018,0,1.839,0.824,1.839,1.841S22.243,23.789,21.226,23.789
		 M26.76,30.243c-1.019,0-1.846-0.82-1.846-1.843c0-1.014,0.827-1.839,1.846-1.839c1.018,0,1.845,0.825,1.845,1.839
		C28.604,29.422,27.777,30.243,26.76,30.243 M26.76,23.789c-1.019,0-1.846-0.826-1.846-1.843s0.827-1.841,1.846-1.841
		c1.018,0,1.845,0.824,1.845,1.841S27.777,23.789,26.76,23.789 M32.287,30.243c-1.012,0-1.839-0.82-1.839-1.843
		c0-1.014,0.827-1.839,1.839-1.839c1.019,0,1.846,0.825,1.846,1.839C34.133,29.422,33.306,30.243,32.287,30.243 M32.287,23.789
		c-1.012,0-1.839-0.826-1.839-1.843s0.827-1.841,1.839-1.841c1.019,0,1.846,0.824,1.846,1.841S33.306,23.789,32.287,23.789
		 M36.445,13.091H6.017V7.516c0-3.868,3.146-7.016,7.015-7.016h16.394c3.874,0,7.02,3.148,7.02,7.016V13.091z"/>
</g>
</svg>
