<?xml version="1.0" encoding="utf-8"?>
<!-- Generator: Adobe Illustrator 16.0.0, SVG Export Plug-In . SVG Version: 6.00 Build 0)  -->
<!DOCTYPE svg PUBLIC "-//W3C//DTD SVG 1.1//EN" "http://www.w3.org/Graphics/SVG/1.1/DTD/svg11.dtd">
<svg version="1.1" id="Layer_1" xmlns="http://www.w3.org/2000/svg" xmlns:xlink="http://www.w3.org/1999/xlink" x="0px" y="0px"
	 width="31.777px" height="42.765px" viewBox="0 0 31.777 42.765" enable-background="new 0 0 31.777 42.765" xml:space="preserve">
<g>
	<defs>
		<rect id="SVGID_1_" width="31.778" height="42.765"/>
	</defs>
	<clipPath id="SVGID_2_">
		<use xlink:href="#SVGID_1_"  overflow="visible"/>
	</clipPath>
	<path clip-path="url(#SVGID_2_)" fill="none" stroke="#00B2EF" stroke-miterlimit="10" d="M31.277,15.95
		c0-8.526-6.859-15.45-15.38-15.45C7.377,0.5,0.5,7.424,0.5,15.95c0,5.934,4.337,11.095,8.337,13.68v5.485
		c0,3.943,3.053,7.149,7,7.149c3.946,0,7-3.206,7-7.149v-5.489C25.837,27.042,31.277,21.882,31.277,15.95z"/>
	<path clip-path="url(#SVGID_2_)" fill="none" stroke="#00B2EF" stroke-miterlimit="10" d="M22.447,23.401
		c0,0-5.533-0.412-5.533-6.956c0,0-0.054-4.866,1.731-4.866c1.784,0,2.047,4.591,2.047,4.591c0,6.865-4.733,7.23-4.733,7.23
		s-5.532-0.412-5.532-6.956c0,0-0.054-4.866,1.73-4.866c1.784,0,2.047,4.591,2.047,4.591c0,6.865-4.732,7.23-4.732,7.23"/>
	
		<line clip-path="url(#SVGID_2_)" fill="none" stroke="#00B2EF" stroke-width="1.05" stroke-miterlimit="10" x1="8.489" y1="34.104" x2="19.082" y2="35.443"/>
	
		<line clip-path="url(#SVGID_2_)" fill="none" stroke="#00B2EF" stroke-width="1.05" stroke-miterlimit="10" x1="8.489" y1="29.869" x2="19.082" y2="31.208"/>
</g>
</svg>
