<?xml version="1.0" encoding="utf-8"?>
<!-- Generator: Adobe Illustrator 18.1.0, SVG Export Plug-In . SVG Version: 6.00 Build 0)  -->
<svg version="1.1" id="Layer_1" xmlns="http://www.w3.org/2000/svg" xmlns:xlink="http://www.w3.org/1999/xlink" x="0px" y="0px"
	 viewBox="0 0 159.1 42.2" enable-background="new 0 0 159.1 42.2" xml:space="preserve">
<g>
	<g>
		<polygon fill="#FFFFFF" points="72.7,39.5 0,39.5 0,18.5 32.8,18.5 38,12.3 43,18.5 72.7,18.5 		"/>
		<text transform="matrix(1 0 0 1 9.0416 32.6311)" fill="#23AFE6" font-family="'HelveticaNeue-Bold'" font-size="10">industry</text>
	</g>
	<g>
		<line fill="none" stroke="#FFFFFF" stroke-miterlimit="10" x1="37.6" y1="4.5" x2="125.6" y2="4.5"/>
		<g>
			<circle fill="#162A36" stroke="#FFFFFF" stroke-miterlimit="10" cx="126" cy="4.6" r="3.5"/>
			<circle fill="#162A36" stroke="#FFFFFF" stroke-miterlimit="10" cx="104" cy="4.6" r="3.5"/>
			<circle fill="#162A36" stroke="#FFFFFF" stroke-miterlimit="10" cx="82" cy="4.6" r="3.5"/>
			<circle fill="#162A36" stroke="#FFFFFF" stroke-miterlimit="10" cx="60" cy="4.6" r="3.5"/>
			<circle fill="#FFFFFF" stroke="#FFFFFF" stroke-miterlimit="10" cx="38" cy="4.6" r="3.5"/>
		</g>
	</g>
</g>
<g display="none">
	<g display="inline">
		<polygon fill="#FFFFFF" points="99.4,39.5 19.6,39.5 19.6,18.5 55.5,18.5 60.6,12.3 65.6,18.5 99.4,18.5 		"/>
		<text transform="matrix(1 0 0 1 25.2709 32.6312)" fill="#23AFE6" font-family="'HelveticaNeue-Bold'" font-size="10">motivation</text>
	</g>
	<g display="inline">
		<line fill="none" stroke="#FFFFFF" stroke-miterlimit="10" x1="37.6" y1="4.5" x2="125.6" y2="4.5"/>
		<g>
			<circle fill="#162A36" stroke="#FFFFFF" stroke-miterlimit="10" cx="126" cy="4.6" r="3.5"/>
			<circle fill="#162A36" stroke="#FFFFFF" stroke-miterlimit="10" cx="104" cy="4.6" r="3.5"/>
			<circle fill="#162A36" stroke="#FFFFFF" stroke-miterlimit="10" cx="82" cy="4.6" r="3.5"/>
			<circle fill="#FFFFFF" stroke="#FFFFFF" stroke-miterlimit="10" cx="60" cy="4.6" r="3.5"/>
			<circle fill="#FFFFFF" stroke="#FFFFFF" stroke-miterlimit="10" cx="38" cy="4.6" r="3.5"/>
		</g>
	</g>
</g>
<g display="none">
	<g display="inline">
		<polygon fill="#FFFFFF" points="118.4,39.5 45.6,39.5 45.6,18.5 77.5,18.5 82.6,12.3 87.6,18.5 118.4,18.5 		"/>
		<text transform="matrix(1 0 0 1 53.3304 32.6312)" fill="#23AFE6" font-family="'HelveticaNeue-Bold'" font-size="10">Maturity</text>
	</g>
	<g display="inline">
		<line fill="none" stroke="#FFFFFF" stroke-miterlimit="10" x1="37.6" y1="4.5" x2="125.6" y2="4.5"/>
		<g>
			<circle fill="#162A36" stroke="#FFFFFF" stroke-miterlimit="10" cx="126" cy="4.6" r="3.5"/>
			<circle fill="#162A36" stroke="#FFFFFF" stroke-miterlimit="10" cx="104" cy="4.6" r="3.5"/>
			<circle fill="#FFFFFF" stroke="#FFFFFF" stroke-miterlimit="10" cx="82" cy="4.6" r="3.5"/>
			<circle fill="#FFFFFF" stroke="#FFFFFF" stroke-miterlimit="10" cx="60" cy="4.6" r="3.5"/>
			<circle fill="#FFFFFF" stroke="#FFFFFF" stroke-miterlimit="10" cx="38" cy="4.6" r="3.5"/>
		</g>
	</g>
</g>
<g display="none">
	<g display="inline">
		<polygon fill="#FFFFFF" points="139.4,39.5 66.6,39.5 66.6,18.5 98.5,18.5 103.6,12.3 108.6,18.5 139.4,18.5 		"/>
		<text transform="matrix(1 0 0 1 74.3255 32.6313)" fill="#23AFE6" font-family="'HelveticaNeue-Bold'" font-size="10">Audience</text>
	</g>
	<g display="inline">
		<line fill="none" stroke="#FFFFFF" stroke-miterlimit="10" x1="37.6" y1="4.5" x2="125.6" y2="4.5"/>
		<g>
			<circle fill="#162A36" stroke="#FFFFFF" stroke-miterlimit="10" cx="126" cy="4.6" r="3.5"/>
			<circle fill="#FFFFFF" stroke="#FFFFFF" stroke-miterlimit="10" cx="104" cy="4.6" r="3.5"/>
			<circle fill="#FFFFFF" stroke="#FFFFFF" stroke-miterlimit="10" cx="82" cy="4.6" r="3.5"/>
			<circle fill="#FFFFFF" stroke="#FFFFFF" stroke-miterlimit="10" cx="60" cy="4.6" r="3.5"/>
			<circle fill="#FFFFFF" stroke="#FFFFFF" stroke-miterlimit="10" cx="38" cy="4.6" r="3.5"/>
		</g>
	</g>
</g>
<g display="none">
	<g display="inline">
		<polygon fill="#FFFFFF" points="157.9,39.5 93.4,39.5 93.4,18.5 121.1,18.5 126.2,12.3 131.2,18.5 157.9,18.5 		"/>
		<text transform="matrix(1 0 0 1 100.3821 32.6315)" fill="#23AFE6" font-family="'HelveticaNeue-Bold'" font-size="10">Results</text>
	</g>
	<g display="inline">
		<line fill="none" stroke="#FFFFFF" stroke-miterlimit="10" x1="37.6" y1="4.5" x2="125.6" y2="4.5"/>
		<g>
			<circle fill="#FFFFFF" stroke="#FFFFFF" stroke-miterlimit="10" cx="126" cy="4.6" r="3.5"/>
			<circle fill="#FFFFFF" stroke="#FFFFFF" stroke-miterlimit="10" cx="104" cy="4.6" r="3.5"/>
			<circle fill="#FFFFFF" stroke="#FFFFFF" stroke-miterlimit="10" cx="82" cy="4.6" r="3.5"/>
			<circle fill="#FFFFFF" stroke="#FFFFFF" stroke-miterlimit="10" cx="60" cy="4.6" r="3.5"/>
			<circle fill="#FFFFFF" stroke="#FFFFFF" stroke-miterlimit="10" cx="38" cy="4.6" r="3.5"/>
		</g>
	</g>
</g>
</svg>
