<?xml version="1.0" encoding="utf-8"?>
<!-- Generator: Adobe Illustrator 16.0.0, SVG Export Plug-In . SVG Version: 6.00 Build 0)  -->
<!DOCTYPE svg PUBLIC "-//W3C//DTD SVG 1.1//EN" "http://www.w3.org/Graphics/SVG/1.1/DTD/svg11.dtd">
<svg version="1.1" id="Layer_1" xmlns="http://www.w3.org/2000/svg" xmlns:xlink="http://www.w3.org/1999/xlink" x="0px" y="0px"
	 width="45.351px" height="42.436px" viewBox="0 0 45.351 42.436" enable-background="new 0 0 45.351 42.436" xml:space="preserve">
<g>
	<defs>
		<rect id="SVGID_1_" y="0" width="45.351" height="42.436"/>
	</defs>
	<clipPath id="SVGID_2_">
		<use xlink:href="#SVGID_1_"  overflow="visible"/>
	</clipPath>
	<path clip-path="url(#SVGID_2_)" fill="none" stroke="#00B2EF" stroke-miterlimit="10" d="M16.643,41.667
		c0.671-0.158,1.204-1.052,1.448-1.513c0.248-0.46,3.707-6.719,6.263-11.353h2.44c-0.281-0.298-0.43-1.057-0.43-1.807
		c0-0.754,0.148-1.508,0.43-1.806h-0.445c0.463-0.84,0.746-1.359,0.746-1.359s9.152-0.005,9.279-0.005
		c2.056,0,8.459-0.492,8.477-2.61v-0.004c-0.018-2.118-6.421-2.606-8.477-2.606c-0.127,0-9.279-0.004-9.279-0.004
		s-0.283-0.52-0.746-1.36h0.445c-0.281-0.298-0.43-1.052-0.43-1.801c0-0.754,0.148-1.504,0.43-1.802h-2.44
		c-2.556-4.633-6.015-10.892-6.263-11.353c-0.244-0.465-0.777-1.359-1.448-1.512c-0.816-0.19-1.79-0.344-1.993-0.24
		c-0.239,0.127-0.194,0.407-0.145,0.619c0.109,0.452,3.64,12.242,3.64,12.242l0.009,5.198c0,0-0.646,0.018-1.196,0.018
		c-3.256,0-6.321,0.587-7.533,0.871c-1.21,0.28-3.388,0.782-3.388,0.782S3.338,15.76,2.96,15.146
		c-0.244-0.393-0.471-0.659-0.85-0.691c-0.54-0.045-1.075,0.014-1.256,0.063c-0.236,0.064-0.388,0.339-0.347,0.597
		c0.036,0.216,1.406,5.789,1.406,5.789v0.627c0,0-1.37,5.568-1.406,5.79c-0.041,0.252,0.111,0.532,0.347,0.596
		c0.181,0.049,0.716,0.108,1.256,0.067c0.379-0.036,0.606-0.298,0.85-0.695c0.378-0.619,3.077-5.121,3.077-5.121
		s2.178,0.497,3.388,0.781c1.212,0.285,4.277,0.872,7.533,0.872c0.55,0,1.196,0.013,1.196,0.013l-0.009,5.212
		c0,0-3.531,11.786-3.64,12.242c-0.049,0.207-0.094,0.487,0.145,0.614C14.853,42.006,15.827,41.853,16.643,41.667"/>
</g>
</svg>
